<svg id="Layer_1" data-name="Layer 1" xmlns="http://www.w3.org/2000/svg" viewBox="-30 -30 1624.14 1159.58">
<defs><style>.cls-1,.cls-102,.cls-103,.cls-104,.cls-105,.cls-11,.cls-3,.cls-5,.cls-61,.cls-7,.cls-9{fill:none;}.cls-1,.cls-53,.cls-9{stroke:#f47738;}.cls-1,.cls-10,.cls-102,.cls-103,.cls-104,.cls-105,.cls-11,.cls-3,.cls-5,.cls-53,.cls-61,.cls-7,.cls-9{stroke-miterlimit:10;}.cls-19,.cls-2{fill:#f47738;}.cls-10,.cls-3,.cls-61{stroke:#005ea5;}.cls-18,.cls-4{fill:#005ea5;}.cls-5{stroke:#0b0c0c;}.cls-6{fill:#0b0c0c;}.cls-103,.cls-105,.cls-7{stroke:#6f777b;}.cls-28,.cls-37,.cls-8,.cls-80{fill:#6f777b;}.cls-10,.cls-53,.cls-61,.cls-9{stroke-width:4px;}.cls-10,.cls-53{fill:#fff;}.cls-11{stroke:#1d1d1b;}.cls-12,.cls-18,.cls-19{font-size:18px;}.cls-12,.cls-23,.cls-25,.cls-30,.cls-43,.cls-46,.cls-62,.cls-69,.cls-85{fill:#1b181c;}.cls-12,.cls-18,.cls-19,.cls-23,.cls-25,.cls-28,.cls-30,.cls-37,.cls-43,.cls-46{font-family:NTA-Bold, NTA;font-weight:700;}.cls-13{letter-spacing:-0.02em;}.cls-14{letter-spacing:-0.05em;}.cls-15{letter-spacing:-0.01em;}.cls-16{letter-spacing:-0.01em;}.cls-17{letter-spacing:-0.01em;}.cls-20{letter-spacing:-0.01em;}.cls-21{letter-spacing:-0.01em;}.cls-22{letter-spacing:-0.02em;}.cls-23{font-size:24px;}.cls-24{letter-spacing:-0.01em;}.cls-25,.cls-28,.cls-62{font-size:16px;}.cls-26{letter-spacing:-0.01em;}.cls-27{letter-spacing:-0.02em;}.cls-29{letter-spacing:-0.03em;}.cls-30,.cls-37,.cls-69,.cls-80{font-size:14px;}.cls-31{letter-spacing:-0.02em;}.cls-32{letter-spacing:-0.04em;}.cls-33{letter-spacing:-0.01em;}.cls-34{letter-spacing:-0.01em;}.cls-35{letter-spacing:-0.01em;}.cls-36{letter-spacing:-0.01em;}.cls-38{letter-spacing:-0.02em;}.cls-39{letter-spacing:-0.03em;}.cls-40{letter-spacing:-0.03em;}.cls-41{letter-spacing:-0.01em;}.cls-42{letter-spacing:0em;}.cls-43{font-size:27px;}.cls-44{letter-spacing:-0.01em;}.cls-45{letter-spacing:-0.02em;}.cls-46{font-size:50px;}.cls-47{letter-spacing:-0.01em;}.cls-48{letter-spacing:-0.01em;}.cls-49{letter-spacing:-0.02em;}.cls-50{letter-spacing:-0.01em;}.cls-51{letter-spacing:-0.02em;}.cls-52{letter-spacing:0em;}.cls-54{letter-spacing:-0.05em;}.cls-55{letter-spacing:0em;}.cls-56{letter-spacing:0em;}.cls-57{letter-spacing:-0.01em;}.cls-58{letter-spacing:-0.02em;}.cls-59{letter-spacing:-0.01em;}.cls-60{letter-spacing:0em;}.cls-62,.cls-69,.cls-80{font-family:NTA-Medium, NTA;font-weight:500;}.cls-63{letter-spacing:-0.01em;}.cls-64{letter-spacing:-0.03em;}.cls-65{letter-spacing:0em;}.cls-66{letter-spacing:-0.01em;}.cls-67{letter-spacing:-0.01em;}.cls-68{letter-spacing:-0.01em;}.cls-70{letter-spacing:-0.01em;}.cls-71{letter-spacing:-0.01em;}.cls-72{letter-spacing:0em;}.cls-73{letter-spacing:0em;}.cls-74{letter-spacing:-0.01em;}.cls-75{letter-spacing:-0.02em;}.cls-76{letter-spacing:-0.01em;}.cls-77{letter-spacing:0em;}.cls-78{letter-spacing:-0.02em;}.cls-79{letter-spacing:-0.03em;}.cls-81{letter-spacing:-0.01em;}.cls-82{letter-spacing:-0.04em;}.cls-83{letter-spacing:-0.02em;}.cls-84{letter-spacing:-0.01em;}.cls-86{letter-spacing:-0.04em;}.cls-87{letter-spacing:-0.03em;}.cls-88{letter-spacing:-0.01em;}.cls-89{letter-spacing:-0.03em;}.cls-90{letter-spacing:-0.02em;}.cls-91{letter-spacing:-0.01em;}.cls-92{letter-spacing:-0.01em;}.cls-93{letter-spacing:0em;}.cls-94{letter-spacing:0em;}.cls-95{letter-spacing:0em;}.cls-96{letter-spacing:-0.02em;}.cls-97{letter-spacing:-0.05em;}.cls-98{letter-spacing:-0.01em;}.cls-99{letter-spacing:-0.01em;}.cls-100{letter-spacing:-0.01em;}.cls-101{letter-spacing:0em;}.cls-102,.cls-104{stroke:#1b181c;}.cls-102,.cls-105{stroke-width:2px;}.cls-103,.cls-105{stroke-dasharray:10;}</style></defs><line class="cls-1" x1="521.77" y1="971.57" x2="521.77" y2="580.3"/><polygon class="cls-2" points="526.75 581.76 521.77 573.12 516.78 581.76 526.75 581.76"/><line class="cls-3" x1="506.85" y1="971.57" x2="506.85" y2="408.18"/><polygon class="cls-4" points="511.84 409.64 506.85 401.01 501.87 409.64 511.84 409.64"/><line class="cls-1" x1="822.39" y1="971.57" x2="822.39" y2="581.44"/><polygon class="cls-2" points="827.37 582.9 822.39 574.27 817.4 582.9 827.37 582.9"/><line class="cls-3" x1="861.11" y1="831" x2="861.11" y2="404.79"/><polygon class="cls-4" points="866.1 406.25 861.11 397.61 856.13 406.25 866.1 406.25"/><line class="cls-3" x1="1086.29" y1="689.81" x2="1086.29" y2="407.64"/><polygon class="cls-4" points="1091.28 409.09 1086.29 400.46 1081.31 409.09 1091.28 409.09"/><line class="cls-3" x1="1400.68" y1="685.23" x2="1400.68" y2="293.42"/><polygon class="cls-4" points="1405.67 294.88 1400.68 286.25 1395.7 294.88 1405.67 294.88"/><line class="cls-5" x1="537.83" y1="971.57" x2="537.83" y2="791.61"/><polygon class="cls-6" points="542.82 793.07 537.83 784.43 532.85 793.07 542.82 793.07"/><line class="cls-7" x1="1495.66" y1="683.45" x2="1495.66" y2="292.36"/><polygon class="cls-8" points="1500.64 293.82 1495.66 285.19 1490.67 293.82 1500.64 293.82"/><line class="cls-3" x1="1320.36" y1="969.27" x2="1320.36" y2="292.08"/><polygon class="cls-4" points="1325.35 293.54 1320.36 284.9 1315.38 293.54 1325.35 293.54"/><rect class="cls-9" x="207.68" y="971.57" width="1164.51" height="93.26"/><line class="cls-5" x1="874.88" y1="826" x2="874.88" y2="788.85"/><polygon class="cls-6" points="879.87 790.31 874.88 781.67 869.9 790.31 879.87 790.31"/><rect class="cls-10" x="781.29" y="826" width="220.69" height="99.85"/><rect class="cls-11" x="1261.39" y="987.57" width="89" height="59"/><line class="cls-1" x1="1104.65" y1="685.23" x2="1104.65" y2="578.21"/><polygon class="cls-2" points="1109.64 579.67 1104.65 571.03 1099.66 579.67 1109.64 579.67"/><text class="cls-12" transform="translate(1272.31 1013.18)">G<tspan class="cls-13" x="13.23" y="0">O</tspan><tspan class="cls-14" x="26.42" y="0">V</tspan><tspan class="cls-15" x="36.99" y="0">.</tspan><tspan x="41.96" y="0">U</tspan><tspan class="cls-16" x="54.74" y="0">K</tspan><tspan x="9.85" y="21.6">S</tspan><tspan class="cls-17" x="21.3" y="21.6">C</tspan><tspan x="33.7" y="21.6">SS</tspan></text><rect class="cls-10" x="207.68" y="684.87" width="1350.64" height="93.7"/><rect class="cls-11" x="1090.76" y="702.55" width="89" height="59"/><rect class="cls-7" x="1184.02" y="702.55" width="89" height="59"/><text class="cls-18" transform="translate(1461.39 82.26)">Python</text><text class="cls-19" transform="translate(1461.39 122.35)"><tspan class="cls-20">N</tspan><tspan x="13.84" y="0">od</tspan><tspan class="cls-21" x="35.14" y="0">e</tspan></text><rect class="cls-11" x="997.76" y="702.55" width="89" height="59"/><text class="cls-12" transform="translate(1025.74 728.15)">DL<tspan class="cls-22" x="22.14" y="0">F</tspan><tspan class="cls-17" x="-1.48" y="21.6">C</tspan><tspan x="10.92" y="21.6">SS</tspan></text><text class="cls-12" transform="translate(1119.09 728.15)">DL<tspan class="cls-22" x="22.14" y="0">F</tspan><tspan x="6.47" y="21.6">JS</tspan></text><rect class="cls-11" x="1354.91" y="701.97" width="89" height="59"/><text class="cls-12" transform="translate(1382.89 727.57)">DL<tspan class="cls-22" x="22.14" y="0">F</tspan><tspan x="-7.21" y="21.6">S</tspan><tspan class="cls-17" x="4.24" y="21.6">C</tspan><tspan x="16.64" y="21.6">SS</tspan></text><text class="cls-23" transform="translate(1358.38 38.61)">Languag<tspan class="cls-24" x="93.14" y="0">e</tspan><tspan x="106.32" y="0" xml:space="preserve"> used</tspan></text><rect class="cls-11" x="904.48" y="702.55" width="89" height="59"/><text class="cls-25" transform="translate(918.95 729.75)">dlf-bas<tspan class="cls-26" x="52.57" y="0">e</tspan><tspan x="11.29" y="19.2">.htm</tspan><tspan class="cls-27" x="45.69" y="19.2">l</tspan></text><text class="cls-28" transform="translate(1207.34 728.75)">HTM<tspan class="cls-29" x="34.66" y="0">L</tspan><tspan x="-7.22" y="19.2">partials</tspan></text><rect class="cls-11" x="793.68" y="987.57" width="89" height="59"/><text class="cls-30" transform="translate(811.98 1006.38)">G<tspan class="cls-31" x="10.29" y="0">O</tspan><tspan class="cls-32" x="20.55" y="0">V</tspan><tspan class="cls-33" x="28.77" y="0">.</tspan><tspan x="32.63" y="0">U</tspan><tspan class="cls-34" x="42.57" y="0">K</tspan><tspan class="cls-35" x="-4.66" y="16.8">N</tspan><tspan x="6.16" y="16.8">unjuc</tspan><tspan class="cls-36" x="41.45" y="16.8">k</tspan><tspan x="49.22" y="16.8">s</tspan><tspan class="cls-35" x="-14.88" y="33.6">c</tspan><tspan x="-7.31" y="33.6">omponents</tspan></text><rect class="cls-11" x="847.48" y="833.85" width="89" height="59"/><text class="cls-30" transform="translate(865.79 850.66)">G<tspan class="cls-31" x="10.29" y="0">O</tspan><tspan class="cls-32" x="20.55" y="0">V</tspan><tspan class="cls-33" x="28.77" y="0">.</tspan><tspan x="32.63" y="0">U</tspan><tspan class="cls-34" x="42.57" y="0">K</tspan><tspan x="11.35" y="16.8">Jinja</tspan><tspan class="cls-35" x="-14.88" y="33.6">c</tspan><tspan x="-7.31" y="33.6">omponents</tspan></text><rect class="cls-7" x="1451.16" y="701.97" width="89" height="59"/><text class="cls-37" transform="translate(1466.75 726.78)">DL<tspan class="cls-38" x="17.22" y="0">F</tspan><tspan class="cls-39" x="25.14" y="0"> </tspan><tspan x="28.11" y="0">Jinja</tspan><tspan class="cls-35" x="-12.17" y="16.8">c</tspan><tspan x="-4.6" y="16.8">omponents</tspan></text><text class="cls-12" transform="translate(223.51 1029.42)">G<tspan class="cls-13" x="13.23" y="0">O</tspan><tspan x="26.42" y="0">VU</tspan><tspan class="cls-40" x="50.58" y="0">K</tspan><tspan x="62.05" y="0">-f</tspan><tspan class="cls-41" x="75.53" y="0">r</tspan><tspan class="cls-42" x="82.37" y="0">ontend</tspan></text><text class="cls-43" transform="translate(0 998.71)">GDS</text><text class="cls-43" transform="translate(0 213.67)"><tspan class="cls-44">D</tspan><tspan x="19.3" y="0">igita</tspan><tspan class="cls-45" x="74.98" y="0">l</tspan><tspan x="82.38" y="0" xml:space="preserve"> land</tspan></text><text class="cls-46" transform="translate(0 44.05)"><tspan class="cls-47">Ho</tspan><tspan x="65.8" y="0">w </tspan><tspan class="cls-48" x="116.25" y="0">D</tspan><tspan x="152" y="0">igita</tspan><tspan class="cls-49" x="255.1" y="0">l</tspan><tspan x="268.8" y="0" xml:space="preserve"> land f</tspan><tspan class="cls-50" x="411.5" y="0">r</tspan><tspan x="430.5" y="0">ontends fit</tspan><tspan class="cls-51" x="686.34" y="0"> </tspan><tspan x="697.39" y="0">tog</tspan><tspan class="cls-52" x="776.89" y="0">e</tspan><tspan x="804.79" y="0">the</tspan><tspan class="cls-51" x="882.69" y="0">r</tspan></text><rect class="cls-53" x="210.26" y="439.72" width="1056.74" height="127.69"/><text class="cls-12" transform="translate(223.51 743.86)">D<tspan class="cls-54" x="12.98" y="0">L</tspan><tspan x="21.24" y="0">-f</tspan><tspan class="cls-41" x="34.72" y="0">r</tspan><tspan x="41.56" y="0">ontend</tspan></text><text class="cls-12" transform="translate(223.83 531.45)"><tspan class="cls-55">C</tspan><tspan x="12.44" y="0">ontent-f</tspan><tspan class="cls-15" x="82.44" y="0">r</tspan><tspan x="89.28" y="0">ontend</tspan></text><text class="cls-12" transform="translate(223.61 354.31)">B<tspan class="cls-15" x="12.17" y="0">r</tspan><tspan class="cls-20" x="19.01" y="0">o</tspan><tspan x="29.39" y="0">w</tspan><tspan class="cls-56" x="43.2" y="0">n</tspan><tspan x="53.41" y="0">field-</tspan><tspan class="cls-15" x="97.81" y="0">r</tspan><tspan x="104.65" y="0">esou</tspan><tspan class="cls-15" x="144.76" y="0">r</tspan><tspan class="cls-55" x="151.6" y="0">c</tspan><tspan x="161.33" y="0">es / o</tspan><tspan class="cls-55" x="207.76" y="0">r</tspan><tspan x="214.65" y="0">ganis</tspan><tspan class="cls-55" x="258.86" y="0">a</tspan><tspan x="268.41" y="0">tion pages / </tspan><tspan class="cls-56" x="372.63" y="0">e</tspan><tspan x="382.67" y="0">tc</tspan></text><text class="cls-12" transform="translate(223.51 240.89)"><tspan class="cls-57">L</tspan><tspan x="9.05" y="0">oca</tspan><tspan class="cls-58" x="39.08" y="0">l</tspan><tspan x="44.14" y="0">-plans-p</tspan><tspan class="cls-15" x="113.8" y="0">ro</tspan><tspan x="131.04" y="0">t</tspan><tspan class="cls-15" x="138.69" y="0">o</tspan><tspan x="149.09" y="0">typ</tspan><tspan class="cls-21" x="176.65" y="0">e</tspan><tspan x="186.53" y="0" xml:space="preserve"> / section-106-p</tspan><tspan class="cls-41" x="319.91" y="0">ro</tspan><tspan x="337.16" y="0">t</tspan><tspan class="cls-15" x="344.81" y="0">o</tspan><tspan x="355.21" y="0">typ</tspan><tspan class="cls-59" x="382.77" y="0">e</tspan><tspan x="392.65" y="0" xml:space="preserve"> / </tspan><tspan class="cls-60" x="409.25" y="0">e</tspan><tspan x="419.29" y="0">tc</tspan></text><polygon class="cls-61" points="210.26 289.77 210.26 337.14 210.26 346.94 210.26 394.31 1267 394.31 1267 346.94 1267 337.14 1267 289.77 210.26 289.77"/><text class="cls-62" transform="translate(223.83 377.84)"><tspan class="cls-63">D</tspan><tspan x="11.34" y="0">igita</tspan><tspan class="cls-64" x="43.44" y="0">l</tspan><tspan class="cls-65" x="47.62" y="0" xml:space="preserve"> land pages, p</tspan><tspan class="cls-66" x="148.73" y="0">r</tspan><tspan x="154.53" y="0">ojects and p</tspan><tspan class="cls-66" x="243.66" y="0">r</tspan><tspan class="cls-67" x="249.45" y="0">o</tspan><tspan class="cls-65" x="258.53" y="0">t</tspan><tspan class="cls-67" x="264.97" y="0">o</tspan><tspan x="274.04" y="0">types - with NO </tspan><tspan class="cls-66" x="392.08" y="0">r</tspan><tspan x="397.87" y="0">epo specific</tspan><tspan class="cls-68" x="485.9" y="0"> </tspan><tspan x="489.76" y="0">f</tspan><tspan class="cls-66" x="495.33" y="0">r</tspan><tspan x="501.12" y="0">ontend</tspan></text><text class="cls-69" transform="translate(0 729.31)"><tspan class="cls-70">A</tspan><tspan x="9.3" y="0">s much as possibl</tspan><tspan class="cls-71" x="121.7" y="0">e</tspan><tspan x="129.22" y="0" xml:space="preserve"> is </tspan><tspan class="cls-72" x="0" y="16.8">c</tspan><tspan x="7.41" y="16.8">onsistent with </tspan><tspan class="cls-73" x="101.99" y="16.8">c</tspan><tspan x="109.4" y="16.8">ommon </tspan><tspan x="0" y="33.6">and established c</tspan><tspan class="cls-74" x="112.03" y="33.6">r</tspan><tspan x="117.1" y="33.6">oss </tspan><tspan x="0" y="50.4">g</tspan><tspan class="cls-71" x="7.94" y="50.4">o</tspan><tspan class="cls-75" x="15.82" y="50.4">v</tspan><tspan x="22.5" y="50.4"> </tspan><tspan class="cls-72" x="26.03" y="50.4">c</tspan><tspan x="33.43" y="50.4">omponents and </tspan><tspan x="0" y="67.2">p</tspan><tspan class="cls-72" x="8.2" y="67.2">a</tspan><tspan x="15.6" y="67.2">tterns.</tspan></text><text class="cls-69" transform="translate(0 408.06)"><tspan class="cls-76">M</tspan><tspan x="11.89" y="0">aking us</tspan><tspan class="cls-34" x="64.69" y="0">e</tspan><tspan x="72.21" y="0"> </tspan><tspan class="cls-77" x="75.74" y="0">o</tspan><tspan class="cls-31" x="83.71" y="0">f</tspan><tspan x="88.3" y="0"> </tspan><tspan class="cls-74" x="91.83" y="0">a</tspan><tspan class="cls-70" x="99.13" y="0">v</tspan><tspan x="106.05" y="0">ailabl</tspan><tspan class="cls-34" x="140.74" y="0">e</tspan><tspan x="148.26" y="0"> </tspan><tspan x="0" y="16.8">G</tspan><tspan class="cls-78" x="10.04" y="16.8">O</tspan><tspan x="20.13" y="16.8">VU</tspan><tspan class="cls-71" x="38.78" y="16.8">K</tspan><tspan x="47.8" y="16.8" xml:space="preserve"> and D</tspan><tspan class="cls-79" x="88.38" y="16.8">L</tspan><tspan x="95" y="16.8"> </tspan><tspan class="cls-78" x="98.53" y="16.8">F</tspan><tspan class="cls-74" x="106.39" y="16.8">r</tspan><tspan x="111.45" y="16.8">ontend </tspan><tspan class="cls-72" x="0" y="33.6">c</tspan><tspan x="7.41" y="33.6">omponents.</tspan></text><text class="cls-80" transform="translate(1385.5 844.86)"><tspan class="cls-74">N</tspan><tspan class="cls-76" x="10.72" y="0">o</tspan><tspan x="18.66" y="0">t som</tspan><tspan class="cls-73" x="54.46" y="0">e</tspan><tspan x="62.08" y="0">thing </tspan><tspan class="cls-76" x="98.45" y="0">w</tspan><tspan class="cls-71" x="108.86" y="0">e</tspan><tspan x="116.38" y="0" xml:space="preserve"> h</tspan><tspan class="cls-81" x="127.78" y="0">a</tspan><tspan class="cls-71" x="135.09" y="0">ve</tspan><tspan x="149.45" y="0"> </tspan><tspan x="-11.24" y="16.8">ma</tspan><tspan class="cls-72" x="7.94" y="16.8">n</tspan><tspan class="cls-75" x="15.75" y="16.8">y</tspan><tspan x="22.32" y="16.8"> </tspan><tspan class="cls-77" x="25.85" y="16.8">o</tspan><tspan class="cls-31" x="33.81" y="16.8">f</tspan><tspan x="38.4" y="16.8"> </tspan><tspan class="cls-72" x="41.93" y="16.8">a</tspan><tspan x="49.33" y="16.8">t</tspan><tspan class="cls-31" x="54.97" y="16.8"> </tspan><tspan x="58.21" y="16.8">th</tspan><tspan class="cls-71" x="71.72" y="16.8">e</tspan><tspan x="79.24" y="16.8" xml:space="preserve"> moment but </tspan><tspan x="-12.43" y="33.6">might, and m</tspan><tspan class="cls-76" x="70.6" y="33.6">a</tspan><tspan x="77.95" y="33.6">yb</tspan><tspan class="cls-34" x="93.05" y="33.6">e</tspan><tspan x="100.56" y="33.6" xml:space="preserve"> should in </tspan><tspan x="-9.08" y="50.4">th</tspan><tspan class="cls-71" x="4.42" y="50.4">e </tspan><tspan x="15.32" y="50.4">futu</tspan><tspan class="cls-74" x="41.57" y="50.4">r</tspan><tspan class="cls-34" x="46.64" y="50.4">e</tspan><tspan x="54.15" y="50.4"> </tspan><tspan class="cls-82" x="57.68" y="50.4">(</tspan><tspan x="62.82" y="50.4">e</tspan><tspan class="cls-81" x="70.49" y="50.4">.</tspan><tspan x="74.16" y="50.4">g.</tspan><tspan class="cls-83" x="85.9" y="50.4"> </tspan><tspan x="89.15" y="50.4">top banne</tspan><tspan class="cls-51" x="153.62" y="50.4">r</tspan><tspan x="158.54" y="50.4"> </tspan><tspan x="51.2" y="67.2">partia</tspan><tspan class="cls-84" x="88.68" y="67.2">l</tspan><tspan x="92.5" y="67.2">)</tspan></text><path class="cls-85" d="M51.48,279.81h3.64A3,3,0,0,1,58.31,283,3.13,3.13,0,0,1,55,286.12H53.06v3.5H51.48Zm5.21,3.13a1.65,1.65,0,0,0-1.77-1.74H53.06v3.53h1.86A1.64,1.64,0,0,0,56.69,283Z" transform="translate(-50.22 -47.9)"/><path class="cls-85" d="M66,286.05a3.43,3.43,0,1,1-3.42-3.71A3.41,3.41,0,0,1,66,286.05Zm-1.5,0V286c0-1.28-.69-2.33-1.92-2.33s-1.92,1.05-1.92,2.33v.08c0,1.28.69,2.33,1.92,2.33S64.5,287.37,64.5,286.09Z" transform="translate(-50.22 -47.9)"/><path class="cls-85" d="M69.75,287.76c0,.38.17.66.84.66a6,6,0,0,0,.9-.09l.19,1.32a10,10,0,0,1-1.45.11c-1.21,0-2-.48-2-1.75v-4.2H66.93v-1.33h1.32v-2.19c.5-.15,1-.33,1.5-.49v2.68h2v1.33h-2Z" transform="translate(-50.22 -47.9)"/><path class="cls-85" d="M74.27,286.57a1.93,1.93,0,0,0,1.92,1.85,2.5,2.5,0,0,0,1.9-.75l.79,1.08a4,4,0,0,1-2.73,1,3.72,3.72,0,0,1,0-7.42c1.92,0,3.13,1.57,3.13,3.69v.52Zm0-1.17h3.45a1.66,1.66,0,0,0-1.62-1.77A1.81,1.81,0,0,0,74.28,285.4Z" transform="translate(-50.22 -47.9)"/><path class="cls-85" d="M80.82,282.48h1.49v.67a2.5,2.5,0,0,1,1.92-.81,2.38,2.38,0,0,1,2.5,2.55v4.73H85.25v-4.4a1.26,1.26,0,0,0-1.35-1.45,1.56,1.56,0,0,0-1.59,1.69v4.16H80.82Z" transform="translate(-50.22 -47.9)"/><path class="cls-85" d="M90.93,287.76c0,.38.17.66.84.66a6,6,0,0,0,.9-.09l.19,1.32a10,10,0,0,1-1.45.11c-1.21,0-2-.48-2-1.75v-4.2H88.12v-1.33h1.31v-2.19c.51-.15,1-.33,1.5-.49v2.68h1.95v1.33H90.93Z" transform="translate(-50.22 -47.9)"/><path class="cls-85" d="M95.09,279.68a1,1,0,1,1-1,1A1,1,0,0,1,95.09,279.68Zm.74,9.94H94.35v-7.14h1.48Z" transform="translate(-50.22 -47.9)"/><path class="cls-85" d="M99.93,289.76a2.31,2.31,0,0,1-2.53-2.23,2.08,2.08,0,0,1,2-2.06l2.35-.35v-.28c0-.91-.6-1.17-1.34-1.17a4.39,4.39,0,0,0-2.14.57l-.63-1.16a5.37,5.37,0,0,1,2.73-.74c1.34,0,2.87.36,2.87,2.34V288c0,.26.13.5.53.67l.16.07-.68,1A1.6,1.6,0,0,1,102,289,2.89,2.89,0,0,1,99.93,289.76Zm.16-3.21c-.52.09-1.15.27-1.15,1s.6,1.05,1.26,1.05,1.55-.52,1.55-1.22v-1Z" transform="translate(-50.22 -47.9)"/><path class="cls-85" d="M105.28,279.81h1.49v8.12c0,.33.18.5.6.5a6.17,6.17,0,0,0,.77-.06c0,.45.11.84.15,1.29,0,0-.84.1-1.48.1a1.38,1.38,0,0,1-1.53-1.5Z" transform="translate(-50.22 -47.9)"/><path class="cls-85" d="M109.31,279.81h1.49v8.12c0,.33.18.5.6.5a6.17,6.17,0,0,0,.77-.06c0,.45.11.84.15,1.29,0,0-.84.1-1.48.1a1.38,1.38,0,0,1-1.53-1.5Z" transform="translate(-50.22 -47.9)"/><path class="cls-85" d="M112.49,282.48h1.69l1.53,5.32,1.56-5.32h1.66l-2.63,8.07a1.78,1.78,0,0,1-2,1.37,8.39,8.39,0,0,1-1.45-.13l.27-1.32a5.42,5.42,0,0,0,.94.09c.42,0,.59-.2.68-.58l.09-.32Z" transform="translate(-50.22 -47.9)"/><path class="cls-85" d="M124.12,279.68a1,1,0,1,1,0,2,1,1,0,0,1,0-2Zm.75,9.94h-1.49v-7.14h1.49Z" transform="translate(-50.22 -47.9)"/><path class="cls-85" d="M126.9,282.48h1.48v.67a2.5,2.5,0,0,1,1.92-.81,2.38,2.38,0,0,1,2.51,2.55v4.73h-1.49v-4.4a1.26,1.26,0,0,0-1.34-1.45,1.56,1.56,0,0,0-1.6,1.69v4.16H126.9Z" transform="translate(-50.22 -47.9)"/><path class="cls-85" d="M134.36,286.05a3.41,3.41,0,0,1,3.42-3.71,3.1,3.1,0,0,1,2.94,1.85l-1.32.64a1.66,1.66,0,0,0-1.62-1.15c-1.24,0-1.91,1.05-1.91,2.33v.08c0,1.28.67,2.33,1.91,2.33a1.67,1.67,0,0,0,1.62-1.15l1.32.64a3.12,3.12,0,0,1-2.94,1.85A3.41,3.41,0,0,1,134.36,286.05Z" transform="translate(-50.22 -47.9)"/><path class="cls-85" d="M142.2,279.81h1.48v8.12c0,.33.19.5.61.5a6.32,6.32,0,0,0,.77-.06c0,.45.11.84.15,1.29,0,0-.84.1-1.48.1a1.38,1.38,0,0,1-1.53-1.5Z" transform="translate(-50.22 -47.9)"/><path class="cls-85" d="M152.11,289.62h-1.48V289a2.45,2.45,0,0,1-1.91.81,2.38,2.38,0,0,1-2.52-2.55v-4.73h1.49v4.4a1.27,1.27,0,0,0,1.34,1.45,1.55,1.55,0,0,0,1.6-1.69v-4.16h1.48Z" transform="translate(-50.22 -47.9)"/><path class="cls-85" d="M153.74,286.05c0-2.17,1.28-3.71,3.19-3.71a2.43,2.43,0,0,1,1.9.81v-3.34h1.49v9.81h-1.49V289a2.42,2.42,0,0,1-1.89.81C155,289.76,153.74,288.23,153.74,286.05Zm5.14-.55a1.68,1.68,0,0,0-1.71-1.82c-1.24,0-1.92,1.05-1.92,2.33v.08c0,1.28.66,2.33,1.92,2.33a1.68,1.68,0,0,0,1.71-1.82Z" transform="translate(-50.22 -47.9)"/><path class="cls-85" d="M163.45,286.57a1.94,1.94,0,0,0,1.92,1.85,2.52,2.52,0,0,0,1.91-.75l.78,1.08a4,4,0,0,1-2.73,1,3.72,3.72,0,0,1,0-7.42c1.92,0,3.14,1.57,3.14,3.69v.52Zm0-1.17h3.44a1.66,1.66,0,0,0-1.62-1.77A1.8,1.8,0,0,0,163.47,285.4Z" transform="translate(-50.22 -47.9)"/><path class="cls-85" d="M169.37,288.56l.93-1a3.25,3.25,0,0,0,2.21.94c.76,0,1.23-.33,1.23-.83s-.19-.57-.61-.73-.72-.21-1.17-.33c-.89-.24-2.15-.68-2.15-2.08s1.19-2.18,2.74-2.18a3.78,3.78,0,0,1,2.62,1l0,0-.88,1a2.82,2.82,0,0,0-1.82-.72c-.76,0-1.19.32-1.19.79s.34.63.81.77,1.12.32,1.71.53a1.86,1.86,0,0,1,1.42,1.79c0,1.54-1.35,2.27-2.82,2.27a4.47,4.47,0,0,1-2.93-1.08Z" transform="translate(-50.22 -47.9)"/><path class="cls-85" d="M180.36,279.81h1.49v8.12c0,.33.18.5.6.5a6.17,6.17,0,0,0,.77-.06c0,.45.11.84.16,1.29,0,0-.85.1-1.49.1a1.38,1.38,0,0,1-1.53-1.5Z" transform="translate(-50.22 -47.9)"/><path class="cls-85" d="M185.54,286.57a1.94,1.94,0,0,0,1.92,1.85,2.52,2.52,0,0,0,1.91-.75l.78,1.08a4,4,0,0,1-2.73,1,3.72,3.72,0,0,1,0-7.42c1.92,0,3.14,1.57,3.14,3.69v.52Zm0-1.17H189a1.65,1.65,0,0,0-1.62-1.77A1.8,1.8,0,0,0,185.56,285.4Z" transform="translate(-50.22 -47.9)"/><path class="cls-85" d="M191.47,288.56l.92-1a3.25,3.25,0,0,0,2.21.94c.76,0,1.24-.33,1.24-.83s-.2-.57-.62-.73-.71-.21-1.16-.33c-.9-.24-2.16-.68-2.16-2.08s1.19-2.18,2.75-2.18a3.82,3.82,0,0,1,2.62,1l0,0-.89,1a2.82,2.82,0,0,0-1.82-.72c-.75,0-1.19.32-1.19.79s.34.63.82.77,1.12.32,1.7.53a1.86,1.86,0,0,1,1.42,1.79c0,1.54-1.35,2.27-2.82,2.27a4.44,4.44,0,0,1-2.92-1.08Z" transform="translate(-50.22 -47.9)"/><path class="cls-85" d="M198.32,288.56l.93-1a3.25,3.25,0,0,0,2.21.94c.76,0,1.24-.33,1.24-.83s-.2-.57-.62-.73-.71-.21-1.16-.33c-.9-.24-2.16-.68-2.16-2.08s1.19-2.18,2.74-2.18a3.78,3.78,0,0,1,2.62,1l0,0-.89,1a2.82,2.82,0,0,0-1.82-.72c-.75,0-1.19.32-1.19.79s.34.63.81.77,1.12.32,1.71.53a1.86,1.86,0,0,1,1.42,1.79c0,1.54-1.35,2.27-2.82,2.27a4.43,4.43,0,0,1-2.92-1.08Z" transform="translate(-50.22 -47.9)"/><path class="cls-85" d="M52.35,303.37a1.93,1.93,0,0,0,1.91,1.85,2.52,2.52,0,0,0,1.91-.75l.78,1.08a3.94,3.94,0,0,1-2.73,1,3.72,3.72,0,0,1,0-7.42c1.92,0,3.14,1.57,3.14,3.69v.52Zm0-1.17h3.45a1.67,1.67,0,0,0-1.63-1.77A1.81,1.81,0,0,0,52.36,302.2Z" transform="translate(-50.22 -47.9)"/><path class="cls-85" d="M58.27,305.36l.92-1a3.25,3.25,0,0,0,2.21.94c.76,0,1.24-.33,1.24-.83s-.2-.57-.62-.73-.71-.21-1.16-.34c-.9-.23-2.16-.67-2.16-2.07s1.19-2.18,2.75-2.18a3.82,3.82,0,0,1,2.62,1l0,0-.88,1a2.87,2.87,0,0,0-1.83-.72c-.75,0-1.19.32-1.19.79s.34.63.82.77,1.12.32,1.71.53a1.86,1.86,0,0,1,1.41,1.79c0,1.54-1.34,2.27-2.82,2.27a4.44,4.44,0,0,1-2.92-1.08Z" transform="translate(-50.22 -47.9)"/><path class="cls-85" d="M68,304.56c0,.38.17.66.84.66a6,6,0,0,0,.89-.09l.2,1.32a10.09,10.09,0,0,1-1.46.11c-1.2,0-2-.48-2-1.75v-4.2H65.18v-1.33H66.5v-2.19c.5-.15,1-.33,1.5-.49v2.68h2v1.33H68Z" transform="translate(-50.22 -47.9)"/><path class="cls-85" d="M73.47,306.56a2.31,2.31,0,0,1-2.53-2.23,2.08,2.08,0,0,1,2-2.06l2.35-.35v-.28c0-.91-.6-1.17-1.34-1.17a4.46,4.46,0,0,0-2.15.57l-.63-1.16a5.44,5.44,0,0,1,2.74-.74c1.34,0,2.87.36,2.87,2.34v3.32c0,.26.12.5.53.67l.15.07-.67,1a1.58,1.58,0,0,1-1.26-.81A2.93,2.93,0,0,1,73.47,306.56Zm.15-3.21c-.51.09-1.14.27-1.14,1s.6,1.05,1.26,1.05,1.55-.52,1.55-1.22v-1.05Z" transform="translate(-50.22 -47.9)"/><path class="cls-85" d="M80.33,305.75v.67H78.85v-9.81h1.48V300a2.45,2.45,0,0,1,1.91-.81c1.9,0,3.19,1.54,3.19,3.71s-1.3,3.71-3.21,3.71A2.44,2.44,0,0,1,80.33,305.75Zm0-2.36A1.68,1.68,0,0,0,82,305.22c1.26,0,1.92-1.05,1.92-2.33v-.08c0-1.28-.69-2.33-1.92-2.33a1.68,1.68,0,0,0-1.71,1.82Z" transform="translate(-50.22 -47.9)"/><path class="cls-85" d="M87,296.61h1.49v8.11c0,.34.18.51.6.51a6.17,6.17,0,0,0,.77-.06c0,.45.11.84.15,1.29,0,0-.84.1-1.48.1a1.38,1.38,0,0,1-1.53-1.5Z" transform="translate(-50.22 -47.9)"/><path class="cls-85" d="M91.84,296.47a1,1,0,1,1-1,1A1,1,0,0,1,91.84,296.47Zm.74,9.95H91.1v-7.14h1.48Z" transform="translate(-50.22 -47.9)"/><path class="cls-85" d="M94,305.36l.93-1a3.21,3.21,0,0,0,2.21.94c.75,0,1.23-.33,1.23-.83s-.19-.57-.62-.73-.71-.21-1.16-.34c-.89-.23-2.16-.67-2.16-2.07s1.2-2.18,2.75-2.18a3.82,3.82,0,0,1,2.62,1l0,0-.88,1a2.84,2.84,0,0,0-1.82-.72c-.76,0-1.19.32-1.19.79s.33.63.81.77,1.12.32,1.71.53a1.86,1.86,0,0,1,1.41,1.79c0,1.54-1.34,2.27-2.81,2.27a4.45,4.45,0,0,1-2.93-1.08Z" transform="translate(-50.22 -47.9)"/><path class="cls-85" d="M103,306.42h-1.49v-9.81H103V300a2.48,2.48,0,0,1,1.91-.81,2.38,2.38,0,0,1,2.51,2.55v4.73H105.9V302a1.27,1.27,0,0,0-1.35-1.46,1.56,1.56,0,0,0-1.59,1.7Z" transform="translate(-50.22 -47.9)"/><path class="cls-85" d="M110.46,303.37a1.93,1.93,0,0,0,1.92,1.85,2.5,2.5,0,0,0,1.9-.75l.79,1.08a4,4,0,0,1-2.73,1,3.72,3.72,0,0,1,0-7.42c1.92,0,3.13,1.57,3.13,3.69v.52Zm0-1.17h3.45a1.66,1.66,0,0,0-1.63-1.77A1.81,1.81,0,0,0,110.47,302.2Z" transform="translate(-50.22 -47.9)"/><path class="cls-85" d="M116.62,302.85c0-2.17,1.29-3.71,3.19-3.71a2.45,2.45,0,0,1,1.91.81v-3.34h1.48v9.81h-1.48v-.67a2.44,2.44,0,0,1-1.89.81C117.92,306.56,116.62,305,116.62,302.85Zm5.14-.55a1.68,1.68,0,0,0-1.71-1.82c-1.23,0-1.92,1-1.92,2.33v.08c0,1.28.66,2.33,1.92,2.33a1.68,1.68,0,0,0,1.71-1.83Z" transform="translate(-50.22 -47.9)"/><path class="cls-85" d="M128.34,302.85a3.41,3.41,0,0,1,3.42-3.71A3.1,3.1,0,0,1,134.7,301l-1.32.64a1.67,1.67,0,0,0-1.62-1.15c-1.24,0-1.91,1-1.91,2.33v.08c0,1.28.67,2.33,1.91,2.33a1.68,1.68,0,0,0,1.62-1.15l1.32.64a3.12,3.12,0,0,1-2.94,1.85A3.41,3.41,0,0,1,128.34,302.85Z" transform="translate(-50.22 -47.9)"/><path class="cls-85" d="M142.58,302.85a3.43,3.43,0,1,1-3.42-3.71A3.41,3.41,0,0,1,142.58,302.85Zm-1.5,0v-.08c0-1.28-.69-2.33-1.92-2.33s-1.92,1-1.92,2.33v.08c0,1.28.69,2.33,1.92,2.33S141.08,304.17,141.08,302.89Z" transform="translate(-50.22 -47.9)"/><path class="cls-85" d="M149.82,306.42h-1.49V302c0-1.08-.57-1.46-1.23-1.46s-1.41.52-1.41,1.72v4.12h-1.5v-7.14h1.47V300a2.28,2.28,0,0,1,1.83-.85,2.14,2.14,0,0,1,1.87,1,2.55,2.55,0,0,1,4.6,1.42v4.83h-1.5V302c0-1.08-.56-1.46-1.21-1.46s-1.43.52-1.43,1.72Z" transform="translate(-50.22 -47.9)"/><path class="cls-85" d="M157.4,305.75v2.83h-1.48v-9.3h1.48V300a2.47,2.47,0,0,1,1.91-.81c1.9,0,3.19,1.54,3.19,3.71s-1.3,3.71-3.21,3.71A2.45,2.45,0,0,1,157.4,305.75Zm0-2.36a1.69,1.69,0,0,0,1.71,1.83c1.26,0,1.92-1.05,1.92-2.33v-.08c0-1.28-.69-2.33-1.92-2.33a1.68,1.68,0,0,0-1.71,1.82Z" transform="translate(-50.22 -47.9)"/><path class="cls-85" d="M170.55,302.85a3.43,3.43,0,1,1-3.42-3.71A3.41,3.41,0,0,1,170.55,302.85Zm-1.5,0v-.08c0-1.28-.68-2.33-1.92-2.33s-1.91,1-1.91,2.33v.08c0,1.28.68,2.33,1.91,2.33S169.05,304.17,169.05,302.89Z" transform="translate(-50.22 -47.9)"/><path class="cls-85" d="M172.16,299.28h1.48V300a2.52,2.52,0,0,1,1.92-.81,2.38,2.38,0,0,1,2.51,2.55v4.73h-1.49V302a1.27,1.27,0,0,0-1.34-1.46,1.57,1.57,0,0,0-1.6,1.7v4.16h-1.48Z" transform="translate(-50.22 -47.9)"/><path class="cls-85" d="M181.15,303.37a1.93,1.93,0,0,0,1.92,1.85,2.51,2.51,0,0,0,1.9-.75l.79,1.08a4,4,0,0,1-2.74,1,3.72,3.72,0,0,1,0-7.42c1.92,0,3.14,1.57,3.14,3.69v.52Zm0-1.17h3.45a1.67,1.67,0,0,0-1.63-1.77A1.81,1.81,0,0,0,181.16,302.2Z" transform="translate(-50.22 -47.9)"/><path class="cls-85" d="M187.7,299.28h1.48V300a2.52,2.52,0,0,1,1.92-.81,2.38,2.38,0,0,1,2.51,2.55v4.73h-1.49V302a1.27,1.27,0,0,0-1.34-1.46,1.57,1.57,0,0,0-1.6,1.7v4.16H187.7Z" transform="translate(-50.22 -47.9)"/><path class="cls-85" d="M197.81,304.56c0,.38.17.66.84.66a6,6,0,0,0,.89-.09l.2,1.32a10.09,10.09,0,0,1-1.46.11c-1.2,0-2-.48-2-1.75v-4.2H195v-1.33h1.32v-2.19c.5-.15,1-.33,1.5-.49v2.68h1.95v1.33h-1.95Z" transform="translate(-50.22 -47.9)"/><path class="cls-85" d="M200.58,305.36l.92-1a3.26,3.26,0,0,0,2.22.94c.75,0,1.23-.33,1.23-.83s-.2-.57-.62-.73-.71-.21-1.16-.34c-.9-.23-2.16-.67-2.16-2.07s1.19-2.18,2.75-2.18a3.82,3.82,0,0,1,2.62,1l0,0-.88,1a2.87,2.87,0,0,0-1.82-.72c-.76,0-1.19.32-1.19.79s.33.63.81.77,1.12.32,1.71.53a1.86,1.86,0,0,1,1.41,1.79c0,1.54-1.34,2.27-2.81,2.27a4.45,4.45,0,0,1-2.93-1.08Z" transform="translate(-50.22 -47.9)"/><path class="cls-85" d="M53.47,321.36c0,.38.16.66.84.66a6,6,0,0,0,.89-.09l.2,1.32a10.09,10.09,0,0,1-1.46.11c-1.2,0-2-.47-2-1.75v-4.2H50.65v-1.33H52v-2.19c.5-.15,1-.33,1.5-.49v2.68h1.94v1.33H53.47Z" transform="translate(-50.22 -47.9)"/><path class="cls-85" d="M58.35,323.22H56.87v-9.8h1.48v3.33a2.5,2.5,0,0,1,1.92-.81,2.38,2.38,0,0,1,2.51,2.55v4.73H61.29v-4.4A1.26,1.26,0,0,0,60,317.37a1.56,1.56,0,0,0-1.6,1.69Z" transform="translate(-50.22 -47.9)"/><path class="cls-85" d="M66.81,323.36a2.32,2.32,0,0,1-2.54-2.23,2.09,2.09,0,0,1,2-2.06l2.35-.35v-.28c0-.91-.6-1.17-1.35-1.17a4.42,4.42,0,0,0-2.14.57l-.63-1.16a5.4,5.4,0,0,1,2.73-.74c1.35,0,2.87.36,2.87,2.34v3.32c0,.26.13.5.54.67l.15.07-.67,1a1.58,1.58,0,0,1-1.26-.81A2.93,2.93,0,0,1,66.81,323.36Zm.15-3.21c-.52.09-1.15.27-1.15,1s.61,1.05,1.26,1.05,1.56-.52,1.56-1.22v-1.05Z" transform="translate(-50.22 -47.9)"/><path class="cls-85" d="M74.37,321.36c0,.38.17.66.84.66a6,6,0,0,0,.9-.09l.19,1.32a10.09,10.09,0,0,1-1.46.11c-1.2,0-2-.47-2-1.75v-4.2H71.55v-1.33h1.32v-2.19c.5-.15,1-.33,1.5-.49v2.68h1.95v1.33H74.37Z" transform="translate(-50.22 -47.9)"/><path class="cls-85" d="M81.3,316.08h1.48v.67a2.5,2.5,0,0,1,1.92-.81,2.38,2.38,0,0,1,2.51,2.55v4.73H85.72v-4.4a1.26,1.26,0,0,0-1.34-1.45,1.56,1.56,0,0,0-1.6,1.69v4.16H81.3Z" transform="translate(-50.22 -47.9)"/><path class="cls-85" d="M90.29,320.17A1.93,1.93,0,0,0,92.2,322a2.52,2.52,0,0,0,1.91-.75l.78,1.08a3.94,3.94,0,0,1-2.73,1,3.72,3.72,0,0,1,0-7.42c1.92,0,3.14,1.57,3.14,3.7v.51Zm0-1.16h3.45a1.67,1.67,0,0,0-1.63-1.78A1.81,1.81,0,0,0,90.3,319Z" transform="translate(-50.22 -47.9)"/><path class="cls-85" d="M98,320.17A1.93,1.93,0,0,0,99.88,322a2.51,2.51,0,0,0,1.9-.75l.79,1.08a4,4,0,0,1-2.74,1,3.72,3.72,0,0,1,0-7.42c1.92,0,3.14,1.57,3.14,3.7v.51ZM98,319h3.45a1.67,1.67,0,0,0-1.63-1.78A1.81,1.81,0,0,0,98,319Z" transform="translate(-50.22 -47.9)"/><path class="cls-85" d="M104.12,319.65c0-2.17,1.29-3.71,3.19-3.71a2.47,2.47,0,0,1,1.91.81v-3.33h1.48v9.8h-1.48v-.67a2.46,2.46,0,0,1-1.9.81C105.42,323.36,104.12,321.83,104.12,319.65Zm5.14-.55a1.68,1.68,0,0,0-1.71-1.82c-1.23,0-1.92,1.05-1.92,2.33v.08c0,1.28.66,2.33,1.92,2.33a1.68,1.68,0,0,0,1.71-1.82Z" transform="translate(-50.22 -47.9)"/><path class="cls-85" d="M121.87,323.22h-1.48v-4.38c0-1.08-.58-1.46-1.23-1.46s-1.42.52-1.42,1.72v4.12h-1.5v-7.14h1.47v.71a2.32,2.32,0,0,1,1.84-.85,2.14,2.14,0,0,1,1.86,1,2.56,2.56,0,0,1,4.61,1.42v4.83h-1.5v-4.38c0-1.08-.56-1.46-1.22-1.46s-1.43.52-1.43,1.72Z" transform="translate(-50.22 -47.9)"/><path class="cls-85" d="M134.4,319.65a3.43,3.43,0,1,1-3.41-3.71A3.4,3.4,0,0,1,134.4,319.65Zm-1.49,0v-.08c0-1.28-.69-2.33-1.92-2.33s-1.92,1.05-1.92,2.33v.08c0,1.28.68,2.33,1.92,2.33S132.91,321,132.91,319.69Z" transform="translate(-50.22 -47.9)"/><path class="cls-85" d="M139.89,317.48h-.24a2,2,0,0,0-2.16,2.23v3.51H136v-7.14h1.46V317a2.42,2.42,0,0,1,2.15-1.06h.27Z" transform="translate(-50.22 -47.9)"/><path class="cls-85" d="M142.2,320.17a1.93,1.93,0,0,0,1.92,1.85,2.51,2.51,0,0,0,1.9-.75l.79,1.08a4,4,0,0,1-2.74,1,3.72,3.72,0,0,1,0-7.42c1.92,0,3.14,1.57,3.14,3.7v.51Zm0-1.16h3.45a1.67,1.67,0,0,0-1.63-1.78A1.81,1.81,0,0,0,142.21,319Z" transform="translate(-50.22 -47.9)"/><path class="cls-85" d="M154.09,321.36c0,.38.16.66.84.66a6,6,0,0,0,.89-.09l.2,1.32a10.09,10.09,0,0,1-1.46.11c-1.2,0-2-.47-2-1.75v-4.2h-1.32v-1.33h1.32v-2.19c.5-.15,1-.33,1.5-.49v2.68H156v1.33h-1.94Z" transform="translate(-50.22 -47.9)"/><path class="cls-85" d="M158.61,320.17a1.93,1.93,0,0,0,1.92,1.85,2.51,2.51,0,0,0,1.9-.75l.78,1.08a3.94,3.94,0,0,1-2.73,1,3.72,3.72,0,0,1,0-7.42c1.92,0,3.14,1.57,3.14,3.7v.51Zm0-1.16h3.45a1.67,1.67,0,0,0-1.63-1.78A1.81,1.81,0,0,0,158.62,319Z" transform="translate(-50.22 -47.9)"/><path class="cls-85" d="M164.53,322.16l.92-1a3.25,3.25,0,0,0,2.21.94c.76,0,1.24-.33,1.24-.83s-.2-.57-.62-.73-.71-.21-1.16-.33c-.9-.24-2.16-.68-2.16-2.08s1.19-2.18,2.75-2.18a3.86,3.86,0,0,1,2.62,1l0,0-.88,1a2.87,2.87,0,0,0-1.83-.72c-.75,0-1.19.32-1.19.79s.34.63.82.77,1.12.32,1.71.53a1.87,1.87,0,0,1,1.41,1.79c0,1.54-1.34,2.27-2.81,2.27a4.45,4.45,0,0,1-2.93-1.08Z" transform="translate(-50.22 -47.9)"/><path class="cls-85" d="M174.26,321.36c0,.38.17.66.84.66a5.82,5.82,0,0,0,.89-.09l.2,1.32a10.09,10.09,0,0,1-1.46.11c-1.2,0-2-.47-2-1.75v-4.2h-1.32v-1.33h1.32v-2.19c.5-.15,1-.33,1.5-.49v2.68h2v1.33h-2Z" transform="translate(-50.22 -47.9)"/><path class="cls-85" d="M182.67,322.55v.67h-1.48v-9.8h1.48v3.33a2.45,2.45,0,0,1,1.91-.81c1.9,0,3.19,1.54,3.19,3.71s-1.3,3.71-3.21,3.71A2.44,2.44,0,0,1,182.67,322.55Zm0-2.35a1.68,1.68,0,0,0,1.71,1.82c1.26,0,1.92-1,1.92-2.33v-.08c0-1.28-.69-2.33-1.92-2.33a1.68,1.68,0,0,0-1.71,1.82Z" transform="translate(-50.22 -47.9)"/><path class="cls-85" d="M190.51,320.17a1.94,1.94,0,0,0,1.92,1.85,2.54,2.54,0,0,0,1.91-.75l.78,1.08a4,4,0,0,1-2.73,1,3.72,3.72,0,0,1,0-7.42c1.92,0,3.14,1.57,3.14,3.7v.51Zm0-1.16H194a1.66,1.66,0,0,0-1.62-1.78A1.8,1.8,0,0,0,190.53,319Z" transform="translate(-50.22 -47.9)"/><path class="cls-85" d="M199.11,316.08h1.41v1.33h-1.41v5.81h-1.49v-5.81h-1.17v-1.33h1.17V315c0-1.28.91-1.75,2.12-1.75a5.8,5.8,0,0,1,1.32.14l-.13,1.27a9.1,9.1,0,0,0-1.05-.08c-.55,0-.77.3-.77.64Z" transform="translate(-50.22 -47.9)"/><path class="cls-85" d="M208.27,319.65a3.43,3.43,0,1,1-3.42-3.71A3.41,3.41,0,0,1,208.27,319.65Zm-1.5,0v-.08c0-1.28-.69-2.33-1.92-2.33s-1.92,1.05-1.92,2.33v.08c0,1.28.69,2.33,1.92,2.33S206.77,321,206.77,319.69Z" transform="translate(-50.22 -47.9)"/><path class="cls-85" d="M213.75,317.48h-.23a2,2,0,0,0-2.16,2.23v3.51h-1.49v-7.14h1.46V317a2.44,2.44,0,0,1,2.16-1.06h.26Z" transform="translate(-50.22 -47.9)"/><path class="cls-85" d="M216.06,320.17A1.94,1.94,0,0,0,218,322a2.52,2.52,0,0,0,1.91-.75l.78,1.08a4,4,0,0,1-2.73,1,3.72,3.72,0,0,1,0-7.42c1.92,0,3.14,1.57,3.14,3.7v.51Zm0-1.16h3.44a1.66,1.66,0,0,0-1.62-1.78A1.8,1.8,0,0,0,216.08,319Z" transform="translate(-50.22 -47.9)"/><path class="cls-85" d="M52.71,339.35V340H51.23v-9.8h1.48v3.33a2.45,2.45,0,0,1,1.91-.81c1.9,0,3.19,1.54,3.19,3.71s-1.3,3.71-3.21,3.71A2.44,2.44,0,0,1,52.71,339.35Zm0-2.35a1.68,1.68,0,0,0,1.71,1.82c1.26,0,1.92-1.05,1.92-2.33v-.08c0-1.28-.69-2.33-1.92-2.33a1.68,1.68,0,0,0-1.71,1.82Z" transform="translate(-50.22 -47.9)"/><path class="cls-85" d="M60.55,337a1.93,1.93,0,0,0,1.92,1.85,2.5,2.5,0,0,0,1.9-.75l.79,1.08a4,4,0,0,1-2.73,1,3.72,3.72,0,0,1,0-7.42c1.92,0,3.13,1.57,3.13,3.69V337Zm0-1.16H64A1.67,1.67,0,0,0,62.38,334,1.81,1.81,0,0,0,60.56,335.81Z" transform="translate(-50.22 -47.9)"/><path class="cls-85" d="M67.86,330.08a1,1,0,1,1-1,1A1,1,0,0,1,67.86,330.08ZM68.6,340H67.12v-7.14H68.6Z" transform="translate(-50.22 -47.9)"/><path class="cls-85" d="M70.63,332.88h1.48v.67a2.52,2.52,0,0,1,1.92-.81,2.38,2.38,0,0,1,2.51,2.55V340H75.06v-4.4a1.26,1.26,0,0,0-1.35-1.45,1.56,1.56,0,0,0-1.6,1.69V340H70.63Z" transform="translate(-50.22 -47.9)"/><path class="cls-85" d="M81.12,332.74a2.41,2.41,0,0,1,1.82.71v-.57h1.48V340c0,1.47-1,2.35-3,2.35a6.81,6.81,0,0,1-2.85-.59l.42-1.27a6.07,6.07,0,0,0,2.33.53c1,0,1.66-.38,1.66-1.32v-1a2.4,2.4,0,0,1-1.82.72,3.35,3.35,0,0,1,0-6.66ZM83,336.07c0-1.11-.49-2-1.65-2s-1.66.88-1.66,2,.49,2,1.66,2S83,337.22,83,336.07Z" transform="translate(-50.22 -47.9)"/><path class="cls-85" d="M89.56,336.45A3.41,3.41,0,0,1,93,332.74a3.1,3.1,0,0,1,2.94,1.85l-1.32.64A1.67,1.67,0,0,0,93,334.08c-1.24,0-1.91,1.05-1.91,2.33v.08c0,1.28.67,2.33,1.91,2.33a1.68,1.68,0,0,0,1.62-1.15l1.32.64A3.12,3.12,0,0,1,93,340.16,3.41,3.41,0,0,1,89.56,336.45Z" transform="translate(-50.22 -47.9)"/><path class="cls-85" d="M103.8,336.45a3.43,3.43,0,1,1-3.42-3.71A3.41,3.41,0,0,1,103.8,336.45Zm-1.5,0v-.08c0-1.28-.69-2.33-1.92-2.33s-1.92,1.05-1.92,2.33v.08c0,1.28.69,2.33,1.92,2.33S102.3,337.77,102.3,336.49Z" transform="translate(-50.22 -47.9)"/><path class="cls-85" d="M105.41,332.88h1.48v.67a2.5,2.5,0,0,1,1.92-.81,2.38,2.38,0,0,1,2.51,2.55V340h-1.49v-4.4a1.26,1.26,0,0,0-1.34-1.45,1.56,1.56,0,0,0-1.6,1.69V340h-1.48Z" transform="translate(-50.22 -47.9)"/><path class="cls-85" d="M112.64,339l.93-1a3.25,3.25,0,0,0,2.21.94c.76,0,1.23-.33,1.23-.83s-.19-.57-.61-.73-.72-.21-1.16-.33c-.9-.24-2.16-.68-2.16-2.08s1.19-2.18,2.74-2.18a3.78,3.78,0,0,1,2.62,1l0,0-.89,1a2.82,2.82,0,0,0-1.82-.72c-.75,0-1.19.32-1.19.79s.34.63.81.77,1.12.32,1.71.53a1.87,1.87,0,0,1,1.42,1.79c0,1.54-1.35,2.27-2.82,2.27a4.47,4.47,0,0,1-2.93-1.08Z" transform="translate(-50.22 -47.9)"/><path class="cls-85" d="M120.89,330.08a1,1,0,1,1-1,1A1,1,0,0,1,120.89,330.08Zm.74,9.94h-1.48v-7.14h1.48Z" transform="translate(-50.22 -47.9)"/><path class="cls-85" d="M123.27,336.45c0-2.17,1.29-3.71,3.19-3.71a2.45,2.45,0,0,1,1.91.81v-3.33h1.48V340h-1.48v-.67a2.44,2.44,0,0,1-1.89.81C124.57,340.16,123.27,338.63,123.27,336.45Zm5.14-.55a1.68,1.68,0,0,0-1.71-1.82c-1.23,0-1.92,1.05-1.92,2.33v.08c0,1.28.66,2.33,1.92,2.33a1.68,1.68,0,0,0,1.71-1.82Z" transform="translate(-50.22 -47.9)"/><path class="cls-85" d="M133,337a1.93,1.93,0,0,0,1.92,1.85,2.51,2.51,0,0,0,1.9-.75l.79,1.08a4,4,0,0,1-2.74,1,3.72,3.72,0,0,1,0-7.42c1.92,0,3.14,1.57,3.14,3.69V337Zm0-1.16h3.45a1.67,1.67,0,0,0-1.63-1.78A1.81,1.81,0,0,0,133,335.81Z" transform="translate(-50.22 -47.9)"/><path class="cls-85" d="M143.42,334.28h-.24a2,2,0,0,0-2.16,2.23V340h-1.48v-7.14H141v.95a2.42,2.42,0,0,1,2.15-1.06h.27Z" transform="translate(-50.22 -47.9)"/><path class="cls-85" d="M145.73,337a1.93,1.93,0,0,0,1.92,1.85,2.51,2.51,0,0,0,1.9-.75l.78,1.08a3.94,3.94,0,0,1-2.73,1,3.72,3.72,0,0,1,0-7.42c1.92,0,3.14,1.57,3.14,3.69V337Zm0-1.16h3.45a1.67,1.67,0,0,0-1.63-1.78A1.81,1.81,0,0,0,145.74,335.81Z" transform="translate(-50.22 -47.9)"/><path class="cls-85" d="M151.89,336.45c0-2.17,1.28-3.71,3.19-3.71a2.43,2.43,0,0,1,1.9.81v-3.33h1.49V340H157v-.67a2.42,2.42,0,0,1-1.89.81C153.19,340.16,151.89,338.63,151.89,336.45Zm5.14-.55a1.68,1.68,0,0,0-1.71-1.82c-1.24,0-1.92,1.05-1.92,2.33v.08c0,1.28.66,2.33,1.92,2.33A1.68,1.68,0,0,0,157,337Z" transform="translate(-50.22 -47.9)"/><path class="cls-85" d="M165.49,339.35v2.83H164v-9.3h1.48v.67a2.47,2.47,0,0,1,1.91-.81c1.91,0,3.19,1.54,3.19,3.71s-1.3,3.71-3.2,3.71A2.46,2.46,0,0,1,165.49,339.35Zm0-2.35a1.68,1.68,0,0,0,1.71,1.82c1.26,0,1.92-1.05,1.92-2.33v-.08c0-1.28-.69-2.33-1.92-2.33a1.68,1.68,0,0,0-1.71,1.82Z" transform="translate(-50.22 -47.9)"/><path class="cls-85" d="M176.09,334.28h-.23a2,2,0,0,0-2.16,2.23V340h-1.49v-7.14h1.46v.95a2.44,2.44,0,0,1,2.16-1.06h.26Z" transform="translate(-50.22 -47.9)"/><path class="cls-85" d="M183.71,336.45a3.43,3.43,0,1,1-3.42-3.71A3.41,3.41,0,0,1,183.71,336.45Zm-1.5,0v-.08c0-1.28-.68-2.33-1.92-2.33s-1.91,1.05-1.91,2.33v.08c0,1.28.68,2.33,1.91,2.33S182.21,337.77,182.21,336.49Z" transform="translate(-50.22 -47.9)"/><path class="cls-85" d="M184.93,336.45c0-2.17,1.29-3.71,3.19-3.71a2.47,2.47,0,0,1,1.91.81v-3.33h1.48V340H190v-.67a2.46,2.46,0,0,1-1.9.81C186.23,340.16,184.93,338.63,184.93,336.45Zm5.14-.55a1.68,1.68,0,0,0-1.71-1.82c-1.23,0-1.92,1.05-1.92,2.33v.08c0,1.28.66,2.33,1.92,2.33a1.68,1.68,0,0,0,1.71-1.82Z" transform="translate(-50.22 -47.9)"/><path class="cls-85" d="M199.38,340h-1.49v-.67a2.44,2.44,0,0,1-1.9.81,2.38,2.38,0,0,1-2.52-2.55v-4.73H195v4.4a1.27,1.27,0,0,0,1.35,1.45,1.54,1.54,0,0,0,1.59-1.69v-4.16h1.49Z" transform="translate(-50.22 -47.9)"/><path class="cls-85" d="M201,336.45a3.4,3.4,0,0,1,3.41-3.71,3.1,3.1,0,0,1,2.94,1.85l-1.31.64a1.67,1.67,0,0,0-1.63-1.15c-1.23,0-1.9,1.05-1.9,2.33v.08c0,1.28.67,2.33,1.9,2.33a1.68,1.68,0,0,0,1.63-1.15l1.31.64a3.12,3.12,0,0,1-2.94,1.85A3.4,3.4,0,0,1,201,336.45Z" transform="translate(-50.22 -47.9)"/><path class="cls-85" d="M208.8,335.27H212v1.39H208.8Z" transform="translate(-50.22 -47.9)"/><path class="cls-85" d="M53.47,355c0,.38.16.66.84.66a6,6,0,0,0,.89-.09l.2,1.32a10.09,10.09,0,0,1-1.46.11c-1.2,0-2-.48-2-1.75V351H50.65v-1.33H52v-2.19c.5-.15,1-.33,1.5-.49v2.68h1.94V351H53.47Z" transform="translate(-50.22 -47.9)"/><path class="cls-85" d="M57.62,346.88a1,1,0,1,1-1,1A1,1,0,0,1,57.62,346.88Zm.75,9.94H56.88v-7.14h1.49Z" transform="translate(-50.22 -47.9)"/><path class="cls-85" d="M66.82,353.25a3.43,3.43,0,1,1-3.41-3.71A3.4,3.4,0,0,1,66.82,353.25Zm-1.49,0v-.08c0-1.28-.69-2.33-1.92-2.33s-1.92,1.05-1.92,2.33v.08c0,1.28.68,2.33,1.92,2.33S65.33,354.57,65.33,353.29Z" transform="translate(-50.22 -47.9)"/><path class="cls-85" d="M68.43,349.68h1.49v.67a2.48,2.48,0,0,1,1.91-.81,2.38,2.38,0,0,1,2.51,2.55v4.73H72.86v-4.4A1.26,1.26,0,0,0,71.51,351a1.55,1.55,0,0,0-1.59,1.69v4.16H68.43Z" transform="translate(-50.22 -47.9)"/><path class="cls-85" d="M83.71,351.08h-.24a2,2,0,0,0-2.16,2.23v3.51H79.83v-7.14h1.45v.95a2.46,2.46,0,0,1,2.16-1.07h.27Z" transform="translate(-50.22 -47.9)"/><path class="cls-85" d="M86,353.77a1.93,1.93,0,0,0,1.92,1.85,2.51,2.51,0,0,0,1.9-.75l.78,1.08a3.94,3.94,0,0,1-2.73,1,3.72,3.72,0,0,1,0-7.42c1.92,0,3.14,1.57,3.14,3.69v.52Zm0-1.17h3.45a1.67,1.67,0,0,0-1.63-1.77A1.81,1.81,0,0,0,86,352.6Z" transform="translate(-50.22 -47.9)"/><path class="cls-85" d="M94.64,357a2.31,2.31,0,0,1-2.53-2.23,2.08,2.08,0,0,1,2-2.06l2.35-.35V352c0-.91-.6-1.17-1.34-1.17a4.46,4.46,0,0,0-2.15.57l-.63-1.16a5.43,5.43,0,0,1,2.73-.74c1.35,0,2.88.36,2.88,2.34v3.32c0,.26.12.5.53.67l.15.07L98,357a1.58,1.58,0,0,1-1.26-.81A2.93,2.93,0,0,1,94.64,357Zm.15-3.21c-.51.09-1.14.27-1.14,1s.6,1.05,1.26,1.05,1.55-.52,1.55-1.22v-1.05Z" transform="translate(-50.22 -47.9)"/><path class="cls-85" d="M99.62,353.25c0-2.17,1.29-3.71,3.2-3.71a2.43,2.43,0,0,1,1.9.81V347h1.49v9.8h-1.49v-.67a2.42,2.42,0,0,1-1.89.81C100.93,357,99.62,355.43,99.62,353.25Zm5.14-.55a1.67,1.67,0,0,0-1.7-1.82c-1.24,0-1.92,1.05-1.92,2.33v.08c0,1.28.65,2.33,1.92,2.33a1.67,1.67,0,0,0,1.7-1.82Z" transform="translate(-50.22 -47.9)"/><path class="cls-85" d="M107.44,349.68h1.69l1.53,5.32,1.55-5.32h1.67l-2.63,8.07a1.78,1.78,0,0,1-2,1.37,8.19,8.19,0,0,1-1.44-.13l.27-1.31a5.86,5.86,0,0,0,.93.08c.42,0,.59-.2.69-.58l.09-.32Z" transform="translate(-50.22 -47.9)"/><path class="cls-85" d="M115.6,354.83a1.07,1.07,0,1,1-1.07,1.07A1.06,1.06,0,0,1,115.6,354.83Z" transform="translate(-50.22 -47.9)"/><text class="cls-69" transform="translate(0 1027.35)"><tspan class="cls-86">W</tspan><tspan x="12.32" y="0">el</tspan><tspan class="cls-87" x="24.02" y="0">l</tspan><tspan x="27.68" y="0" xml:space="preserve"> established and </tspan><tspan x="0" y="16.8">tested </tspan><tspan class="cls-72" x="45.22" y="16.8">c</tspan><tspan x="52.63" y="16.8">omponents.</tspan></text><rect class="cls-61" x="210.26" y="196.52" width="1348.06" height="83.05"/><text class="cls-62" transform="translate(223.72 264.62)"><tspan class="cls-63">D</tspan><tspan x="11.34" y="0">igita</tspan><tspan class="cls-64" x="43.44" y="0">l</tspan><tspan class="cls-65" x="47.62" y="0" xml:space="preserve"> land pages, p</tspan><tspan class="cls-66" x="148.73" y="0">r</tspan><tspan x="154.53" y="0">ojects and p</tspan><tspan class="cls-66" x="243.66" y="0">r</tspan><tspan class="cls-67" x="249.45" y="0">o</tspan><tspan class="cls-65" x="258.53" y="0">t</tspan><tspan class="cls-67" x="264.97" y="0">o</tspan><tspan x="274.04" y="0">types - with </tspan><tspan class="cls-66" x="363.81" y="0">r</tspan><tspan x="369.6" y="0">epo specific</tspan><tspan class="cls-68" x="457.63" y="0"> </tspan><tspan x="461.48" y="0">f</tspan><tspan class="cls-66" x="467.05" y="0">r</tspan><tspan x="472.84" y="0">ontend</tspan></text><text class="cls-12" transform="translate(789.19 914.46)">g<tspan class="cls-88" x="10.42" y="0">o</tspan><tspan x="20.75" y="0">vu</tspan><tspan class="cls-89" x="40.32" y="0">k</tspan><tspan x="50.04" y="0">-jinja-</tspan><tspan class="cls-55" x="97.81" y="0">c</tspan><tspan x="107.55" y="0">omponents</tspan></text><text class="cls-62" transform="translate(223.51 553.05)">digita<tspan class="cls-90" x="41.47" y="0">l</tspan><tspan x="45.78" y="0">-land</tspan><tspan class="cls-91" x="83.14" y="0">.</tspan><tspan x="87.33" y="0">github.io, </tspan><tspan class="cls-66" x="160.43" y="0">r</tspan><tspan x="166.22" y="0">eplacing HUGO</tspan></text><text class="cls-62" transform="translate(223.51 764.7)">Custom<tspan class="cls-92" x="56.94" y="0"> </tspan><tspan class="cls-93" x="60.8" y="0">f</tspan><tspan class="cls-91" x="66.37" y="0">r</tspan><tspan x="72.16" y="0">ontend css, js and </tspan><tspan class="cls-94" x="207.61" y="0">c</tspan><tspan class="cls-95" x="216.08" y="0">omponents</tspan></text><text class="cls-62" transform="translate(223.51 1050.12)">G<tspan class="cls-96" x="11.47" y="0">O</tspan><tspan class="cls-97" x="23.01" y="0">V</tspan><tspan class="cls-98" x="32.16" y="0">.</tspan><tspan x="36.32" y="0">U</tspan><tspan class="cls-99" x="47.66" y="0">K</tspan><tspan x="57.97" y="0" xml:space="preserve"> Design s</tspan><tspan class="cls-100" x="124.02" y="0">y</tspan><tspan x="131.77" y="0">stem ass</tspan><tspan class="cls-101" x="196.46" y="0">e</tspan><tspan class="cls-95" x="205.17" y="0">ts</tspan></text><line class="cls-5" x1="836.16" y1="969.27" x2="836.16" y2="936"/><polygon class="cls-6" points="841.14 937.46 836.16 928.83 831.17 937.46 841.14 937.46"/><line class="cls-5" x1="1304.3" y1="969.27" x2="1304.3" y2="790.31"/><polygon class="cls-6" points="1309.29 791.77 1304.3 783.14 1299.31 791.77 1309.29 791.77"/><rect class="cls-102" x="898.84" y="696.76" width="381.18" height="71.14"/><rect class="cls-11" x="561.68" y="989.57" width="89" height="59"/><text class="cls-12" transform="translate(572.6 1015.18)">G<tspan class="cls-13" x="13.23" y="0">O</tspan><tspan class="cls-14" x="26.42" y="0">V</tspan><tspan class="cls-15" x="36.99" y="0">.</tspan><tspan x="41.96" y="0">U</tspan><tspan class="cls-16" x="54.74" y="0">K</tspan><tspan class="cls-17" x="15.58" y="21.6">C</tspan><tspan x="27.98" y="21.6">SS</tspan></text><rect class="cls-11" x="656.68" y="989.57" width="89" height="59"/><text class="cls-12" transform="translate(667.6 1015.18)">G<tspan class="cls-13" x="13.23" y="0">O</tspan><tspan class="cls-14" x="26.42" y="0">V</tspan><tspan class="cls-15" x="36.99" y="0">.</tspan><tspan x="41.96" y="0">U</tspan><tspan class="cls-16" x="54.74" y="0">K</tspan><tspan x="23.54" y="21.6">JS</tspan></text><rect class="cls-11" x="468.56" y="989.57" width="89" height="59"/><text class="cls-25" transform="translate(476.05 1024.78)">Base.htm<tspan class="cls-27" x="70.93" y="0">l</tspan></text><rect class="cls-102" x="463.36" y="984.03" width="290.23" height="70.09"/><line class="cls-103" x1="201.68" y1="949.05" x2="1558.32" y2="949.05"/><rect class="cls-61" x="1359.38" y="59.69" width="87.2" height="28.85"/><rect class="cls-9" x="1359.38" y="101.04" width="87.2" height="28.85"/><rect class="cls-104" x="1336.77" y="0.5" width="221.12" height="149.16"/><line class="cls-105" x1="201.68" y1="238.04" x2="158.04" y2="238.04"/><polyline class="cls-105" points="201.68 342.04 176.06 342.04 176.06 503.56 201.68 503.56"/><line class="cls-105" x1="201.68" y1="731.26" x2="153.74" y2="731.26"/><line class="cls-105" x1="1495.66" y1="820.68" x2="1495.66" y2="767.9"/><polyline class="cls-105" points="1361.1 863.35 1228.52 863.35 1228.52 767.9"/></svg>