<svg id="Layer_1" data-name="Layer 1" xmlns="http://www.w3.org/2000/svg" viewBox="0 0 1916.75 1060.71"><defs><style>.cls-1,.cls-11,.cls-3,.cls-5,.cls-54,.cls-7,.cls-9,.cls-96,.cls-97,.cls-98,.cls-99{fill:none;}.cls-1,.cls-46,.cls-9{stroke:#f47738;}.cls-1,.cls-10,.cls-11,.cls-3,.cls-46,.cls-5,.cls-54,.cls-7,.cls-9,.cls-96,.cls-97,.cls-98,.cls-99{stroke-miterlimit:10;}.cls-19,.cls-2{fill:#f47738;}.cls-10,.cls-3,.cls-54{stroke:#005ea5;}.cls-18,.cls-4{fill:#005ea5;}.cls-5{stroke:#0b0c0c;}.cls-6{fill:#0b0c0c;}.cls-7,.cls-97,.cls-99{stroke:#6f777b;}.cls-28,.cls-37,.cls-73,.cls-8{fill:#6f777b;}.cls-10,.cls-46,.cls-54,.cls-9{stroke-width:4px;}.cls-10,.cls-46{fill:#fff;}.cls-11{stroke:#1d1d1b;}.cls-12,.cls-18,.cls-19{font-size:18px;}.cls-12,.cls-23,.cls-25,.cls-30,.cls-43,.cls-55,.cls-62,.cls-79{fill:#1b181c;}.cls-12,.cls-18,.cls-19,.cls-23,.cls-25,.cls-28,.cls-30,.cls-37,.cls-43{font-family:NTA-Bold, NTA;font-weight:700;}.cls-13{letter-spacing:-0.02em;}.cls-14{letter-spacing:-0.05em;}.cls-15{letter-spacing:-0.01em;}.cls-16{letter-spacing:-0.01em;}.cls-17{letter-spacing:-0.01em;}.cls-20{letter-spacing:-0.01em;}.cls-21{letter-spacing:-0.01em;}.cls-22{letter-spacing:-0.02em;}.cls-23{font-size:24px;}.cls-24{letter-spacing:-0.01em;}.cls-25,.cls-28,.cls-55{font-size:16px;}.cls-26{letter-spacing:-0.01em;}.cls-27{letter-spacing:-0.02em;}.cls-29{letter-spacing:-0.03em;}.cls-30,.cls-37,.cls-62,.cls-73{font-size:14px;}.cls-31{letter-spacing:-0.02em;}.cls-32{letter-spacing:-0.04em;}.cls-33{letter-spacing:-0.01em;}.cls-34{letter-spacing:-0.01em;}.cls-35{letter-spacing:-0.01em;}.cls-36{letter-spacing:-0.01em;}.cls-38{letter-spacing:-0.02em;}.cls-39{letter-spacing:-0.03em;}.cls-40{letter-spacing:-0.03em;}.cls-41{letter-spacing:-0.01em;}.cls-42{letter-spacing:0em;}.cls-43{font-size:27px;}.cls-44{letter-spacing:-0.01em;}.cls-45{letter-spacing:-0.02em;}.cls-47{letter-spacing:-0.05em;}.cls-48{letter-spacing:0em;}.cls-49{letter-spacing:0em;}.cls-50{letter-spacing:-0.01em;}.cls-51{letter-spacing:-0.02em;}.cls-52{letter-spacing:-0.01em;}.cls-53{letter-spacing:0em;}.cls-55,.cls-62,.cls-73{font-family:NTA-Medium, NTA;font-weight:500;}.cls-56{letter-spacing:-0.01em;}.cls-57{letter-spacing:-0.03em;}.cls-58{letter-spacing:0em;}.cls-59{letter-spacing:-0.01em;}.cls-60{letter-spacing:-0.01em;}.cls-61{letter-spacing:-0.01em;}.cls-63{letter-spacing:-0.01em;}.cls-64{letter-spacing:-0.01em;}.cls-65{letter-spacing:0em;}.cls-66{letter-spacing:0em;}.cls-67{letter-spacing:-0.01em;}.cls-68{letter-spacing:-0.02em;}.cls-69{letter-spacing:-0.01em;}.cls-70{letter-spacing:0em;}.cls-71{letter-spacing:-0.02em;}.cls-72{letter-spacing:-0.03em;}.cls-74{letter-spacing:-0.01em;}.cls-75{letter-spacing:-0.04em;}.cls-76{letter-spacing:-0.02em;}.cls-77{letter-spacing:-0.02em;}.cls-78{letter-spacing:-0.01em;}.cls-80{letter-spacing:-0.04em;}.cls-81{letter-spacing:-0.03em;}.cls-82{letter-spacing:-0.01em;}.cls-83{letter-spacing:-0.03em;}.cls-84{letter-spacing:-0.02em;}.cls-85{letter-spacing:-0.01em;}.cls-86{letter-spacing:-0.01em;}.cls-87{letter-spacing:0em;}.cls-88{letter-spacing:0em;}.cls-89{letter-spacing:0em;}.cls-90{letter-spacing:-0.02em;}.cls-91{letter-spacing:-0.05em;}.cls-92{letter-spacing:-0.01em;}.cls-93{letter-spacing:-0.01em;}.cls-94{letter-spacing:-0.01em;}.cls-95{letter-spacing:0em;}.cls-96,.cls-98{stroke:#1b181c;}.cls-96,.cls-99{stroke-width:2px;}.cls-97,.cls-99{stroke-dasharray:10;}</style></defs><line class="cls-1" x1="572.33" y1="865.62" x2="572.33" y2="474.35"/><polygon class="cls-2" points="577.32 475.81 572.33 467.17 567.35 475.81 577.32 475.81"/><line class="cls-3" x1="557.42" y1="865.62" x2="557.42" y2="302.23"/><polygon class="cls-4" points="562.4 303.69 557.42 295.06 552.43 303.69 562.4 303.69"/><line class="cls-1" x1="872.95" y1="865.62" x2="872.95" y2="475.5"/><polygon class="cls-2" points="877.94 476.96 872.95 468.32 867.97 476.96 877.94 476.96"/><line class="cls-3" x1="911.68" y1="725.06" x2="911.68" y2="298.84"/><polygon class="cls-4" points="916.66 300.3 911.68 291.67 906.69 300.3 916.66 300.3"/><line class="cls-3" x1="1136.86" y1="583.86" x2="1136.86" y2="301.69"/><polygon class="cls-4" points="1141.84 303.15 1136.86 294.51 1131.87 303.15 1141.84 303.15"/><line class="cls-3" x1="1451.25" y1="579.28" x2="1451.25" y2="187.48"/><polygon class="cls-4" points="1456.23 188.93 1451.25 180.3 1446.26 188.93 1456.23 188.93"/><line class="cls-5" x1="588.4" y1="865.62" x2="588.4" y2="685.66"/><polygon class="cls-6" points="593.38 687.12 588.4 678.49 583.41 687.12 593.38 687.12"/><line class="cls-7" x1="1546.22" y1="577.5" x2="1546.22" y2="186.41"/><polygon class="cls-8" points="1551.21 187.87 1546.22 179.24 1541.24 187.87 1551.21 187.87"/><line class="cls-3" x1="1370.93" y1="863.33" x2="1370.93" y2="186.13"/><polygon class="cls-4" points="1375.91 187.59 1370.93 178.96 1365.94 187.59 1375.91 187.59"/><rect class="cls-9" x="258.25" y="865.62" width="1164.51" height="93.26"/><line class="cls-5" x1="925.45" y1="720.05" x2="925.45" y2="682.9"/><polygon class="cls-6" points="930.43 684.36 925.45 675.73 920.46 684.36 930.43 684.36"/><rect class="cls-10" x="831.85" y="720.05" width="220.69" height="99.85"/><rect class="cls-11" x="1311.96" y="881.62" width="89" height="59"/><line class="cls-1" x1="1155.22" y1="579.28" x2="1155.22" y2="472.26"/><polygon class="cls-2" points="1160.2 473.72 1155.22 465.08 1150.23 473.72 1160.2 473.72"/><text class="cls-12" transform="translate(1322.88 907.23)">G<tspan class="cls-13" x="13.23" y="0">O</tspan><tspan class="cls-14" x="26.42" y="0">V</tspan><tspan class="cls-15" x="36.99" y="0">.</tspan><tspan x="41.96" y="0">U</tspan><tspan class="cls-16" x="54.74" y="0">K</tspan><tspan x="9.85" y="21.6">S</tspan><tspan class="cls-17" x="21.3" y="21.6">C</tspan><tspan x="33.7" y="21.6">SS</tspan></text><rect class="cls-10" x="258.25" y="578.93" width="1350.64" height="93.7"/><rect class="cls-11" x="1141.32" y="596.6" width="89" height="59"/><rect class="cls-7" x="1234.58" y="596.6" width="89" height="59"/><text class="cls-18" transform="translate(1756.13 942.3)">Python</text><text class="cls-19" transform="translate(1756.13 982.39)"><tspan class="cls-20">N</tspan><tspan x="13.84" y="0">od</tspan><tspan class="cls-21" x="35.14" y="0">e</tspan></text><rect class="cls-11" x="1048.32" y="596.6" width="89" height="59"/><text class="cls-12" transform="translate(1076.31 622.2)">DL<tspan class="cls-22" x="22.14" y="0">F</tspan><tspan class="cls-17" x="-1.48" y="21.6">C</tspan><tspan x="10.92" y="21.6">SS</tspan></text><text class="cls-12" transform="translate(1169.66 622.2)">DL<tspan class="cls-22" x="22.14" y="0">F</tspan><tspan x="6.47" y="21.6">JS</tspan></text><rect class="cls-11" x="1405.47" y="596.02" width="89" height="59"/><text class="cls-12" transform="translate(1433.46 621.62)">DL<tspan class="cls-22" x="22.14" y="0">F</tspan><tspan x="-7.21" y="21.6">S</tspan><tspan class="cls-17" x="4.24" y="21.6">C</tspan><tspan x="16.64" y="21.6">SS</tspan></text><text class="cls-23" transform="translate(1653.12 898.64)">Languag<tspan class="cls-24" x="93.14" y="0">e</tspan><tspan x="106.32" y="0" xml:space="preserve"> used</tspan></text><rect class="cls-11" x="955.05" y="596.6" width="89" height="59"/><text class="cls-25" transform="translate(969.51 623.81)">dlf-bas<tspan class="cls-26" x="52.57" y="0">e</tspan><tspan x="11.29" y="19.2">.htm</tspan><tspan class="cls-27" x="45.69" y="19.2">l</tspan></text><text class="cls-28" transform="translate(1257.91 622.81)">HTM<tspan class="cls-29" x="34.66" y="0">L</tspan><tspan x="-7.22" y="19.2">partials</tspan></text><rect class="cls-11" x="844.25" y="881.62" width="89" height="59"/><text class="cls-30" transform="translate(862.55 900.43)">G<tspan class="cls-31" x="10.29" y="0">O</tspan><tspan class="cls-32" x="20.55" y="0">V</tspan><tspan class="cls-33" x="28.77" y="0">.</tspan><tspan x="32.63" y="0">U</tspan><tspan class="cls-34" x="42.57" y="0">K</tspan><tspan class="cls-35" x="-4.66" y="16.8">N</tspan><tspan x="6.16" y="16.8">unjuc</tspan><tspan class="cls-36" x="41.45" y="16.8">k</tspan><tspan x="49.22" y="16.8">s</tspan><tspan class="cls-35" x="-14.88" y="33.6">c</tspan><tspan x="-7.31" y="33.6">omponents</tspan></text><rect class="cls-11" x="898.05" y="727.9" width="89" height="59"/><text class="cls-30" transform="translate(916.35 744.71)">G<tspan class="cls-31" x="10.29" y="0">O</tspan><tspan class="cls-32" x="20.55" y="0">V</tspan><tspan class="cls-33" x="28.77" y="0">.</tspan><tspan x="32.63" y="0">U</tspan><tspan class="cls-34" x="42.57" y="0">K</tspan><tspan x="11.35" y="16.8">Jinja</tspan><tspan class="cls-35" x="-14.88" y="33.6">c</tspan><tspan x="-7.31" y="33.6">omponents</tspan></text><rect class="cls-7" x="1501.72" y="596.02" width="89" height="59"/><text class="cls-37" transform="translate(1517.32 620.83)">DL<tspan class="cls-38" x="17.22" y="0">F</tspan><tspan class="cls-39" x="25.14" y="0"> </tspan><tspan x="28.11" y="0">Jinja</tspan><tspan class="cls-35" x="-12.17" y="16.8">c</tspan><tspan x="-4.6" y="16.8">omponents</tspan></text><text class="cls-12" transform="translate(274.07 923.47)">G<tspan class="cls-13" x="13.23" y="0">O</tspan><tspan x="26.42" y="0">VU</tspan><tspan class="cls-40" x="50.58" y="0">K</tspan><tspan x="62.05" y="0">-f</tspan><tspan class="cls-41" x="75.53" y="0">r</tspan><tspan class="cls-42" x="82.37" y="0">ontend</tspan></text><text class="cls-43" transform="translate(50.57 892.77)">GDS</text><text class="cls-43" transform="translate(50.57 107.73)"><tspan class="cls-44">D</tspan><tspan x="19.3" y="0">igita</tspan><tspan class="cls-45" x="74.98" y="0">l</tspan><tspan x="82.38" y="0" xml:space="preserve"> land</tspan></text><rect class="cls-46" x="260.83" y="333.77" width="1056.74" height="127.69"/><text class="cls-12" transform="translate(274.07 637.91)">D<tspan class="cls-47" x="12.98" y="0">L</tspan><tspan x="21.24" y="0">-f</tspan><tspan class="cls-41" x="34.72" y="0">r</tspan><tspan x="41.56" y="0">ontend</tspan></text><text class="cls-12" transform="translate(274.39 425.5)"><tspan class="cls-48">C</tspan><tspan x="12.44" y="0">ontent-f</tspan><tspan class="cls-15" x="82.44" y="0">r</tspan><tspan x="89.28" y="0">ontend</tspan></text><text class="cls-12" transform="translate(274.18 248.36)">B<tspan class="cls-15" x="12.17" y="0">r</tspan><tspan class="cls-20" x="19.01" y="0">o</tspan><tspan x="29.39" y="0">w</tspan><tspan class="cls-49" x="43.2" y="0">n</tspan><tspan x="53.41" y="0">field-</tspan><tspan class="cls-15" x="97.81" y="0">r</tspan><tspan x="104.65" y="0">esou</tspan><tspan class="cls-15" x="144.76" y="0">r</tspan><tspan class="cls-48" x="151.6" y="0">c</tspan><tspan x="161.33" y="0">es / o</tspan><tspan class="cls-48" x="207.76" y="0">r</tspan><tspan x="214.65" y="0">ganis</tspan><tspan class="cls-48" x="258.86" y="0">a</tspan><tspan x="268.41" y="0">tion pages / </tspan><tspan class="cls-49" x="372.63" y="0">e</tspan><tspan x="382.67" y="0">tc</tspan></text><text class="cls-12" transform="translate(274.07 134.94)"><tspan class="cls-50">L</tspan><tspan x="9.05" y="0">oca</tspan><tspan class="cls-51" x="39.08" y="0">l</tspan><tspan x="44.14" y="0">-plans-p</tspan><tspan class="cls-15" x="113.8" y="0">ro</tspan><tspan x="131.04" y="0">t</tspan><tspan class="cls-15" x="138.69" y="0">o</tspan><tspan x="149.09" y="0">typ</tspan><tspan class="cls-21" x="176.65" y="0">e</tspan><tspan x="186.53" y="0" xml:space="preserve"> / section-106-p</tspan><tspan class="cls-41" x="319.91" y="0">ro</tspan><tspan x="337.16" y="0">t</tspan><tspan class="cls-15" x="344.81" y="0">o</tspan><tspan x="355.21" y="0">typ</tspan><tspan class="cls-52" x="382.77" y="0">e</tspan><tspan x="392.65" y="0" xml:space="preserve"> / </tspan><tspan class="cls-53" x="409.25" y="0">e</tspan><tspan x="419.29" y="0">tc</tspan></text><polygon class="cls-54" points="260.83 183.82 260.83 231.19 260.83 240.99 260.83 288.36 1317.57 288.36 1317.57 240.99 1317.57 231.19 1317.57 183.82 260.83 183.82"/><text class="cls-55" transform="translate(274.39 271.9)"><tspan class="cls-56">D</tspan><tspan x="11.34" y="0">igita</tspan><tspan class="cls-57" x="43.44" y="0">l</tspan><tspan class="cls-58" x="47.62" y="0" xml:space="preserve"> land pages, p</tspan><tspan class="cls-59" x="148.73" y="0">r</tspan><tspan x="154.53" y="0">ojects and p</tspan><tspan class="cls-59" x="243.66" y="0">r</tspan><tspan class="cls-60" x="249.45" y="0">o</tspan><tspan class="cls-58" x="258.53" y="0">t</tspan><tspan class="cls-60" x="264.97" y="0">o</tspan><tspan x="274.04" y="0">types - with NO </tspan><tspan class="cls-59" x="392.08" y="0">r</tspan><tspan x="397.87" y="0">epo specific</tspan><tspan class="cls-61" x="485.9" y="0"> </tspan><tspan x="489.76" y="0">f</tspan><tspan class="cls-59" x="495.33" y="0">r</tspan><tspan x="501.12" y="0">ontend</tspan></text><text class="cls-62" transform="translate(50.57 623.36)"><tspan class="cls-63">A</tspan><tspan x="9.3" y="0">s much as possibl</tspan><tspan class="cls-64" x="121.7" y="0">e</tspan><tspan x="129.22" y="0" xml:space="preserve"> is </tspan><tspan class="cls-65" x="0" y="16.8">c</tspan><tspan x="7.41" y="16.8">onsistent with </tspan><tspan class="cls-66" x="101.99" y="16.8">c</tspan><tspan x="109.4" y="16.8">ommon </tspan><tspan x="0" y="33.6">and established c</tspan><tspan class="cls-67" x="112.03" y="33.6">r</tspan><tspan x="117.1" y="33.6">oss </tspan><tspan x="0" y="50.4">g</tspan><tspan class="cls-64" x="7.94" y="50.4">o</tspan><tspan class="cls-68" x="15.82" y="50.4">v</tspan><tspan x="22.5" y="50.4"> </tspan><tspan class="cls-65" x="26.03" y="50.4">c</tspan><tspan x="33.43" y="50.4">omponents and </tspan><tspan x="0" y="67.2">p</tspan><tspan class="cls-65" x="8.2" y="67.2">a</tspan><tspan x="15.6" y="67.2">tterns.</tspan></text><text class="cls-62" transform="translate(50.57 302.12)"><tspan class="cls-69">M</tspan><tspan x="11.89" y="0">aking us</tspan><tspan class="cls-34" x="64.69" y="0">e</tspan><tspan x="72.21" y="0"> </tspan><tspan class="cls-70" x="75.74" y="0">o</tspan><tspan class="cls-31" x="83.71" y="0">f</tspan><tspan x="88.3" y="0"> </tspan><tspan class="cls-67" x="91.83" y="0">a</tspan><tspan class="cls-63" x="99.13" y="0">v</tspan><tspan x="106.05" y="0">ailabl</tspan><tspan class="cls-34" x="140.74" y="0">e</tspan><tspan x="148.26" y="0"> </tspan><tspan x="0" y="16.8">G</tspan><tspan class="cls-71" x="10.04" y="16.8">O</tspan><tspan x="20.13" y="16.8">VU</tspan><tspan class="cls-64" x="38.78" y="16.8">K</tspan><tspan x="47.8" y="16.8" xml:space="preserve"> and D</tspan><tspan class="cls-72" x="88.38" y="16.8">L</tspan><tspan x="95" y="16.8"> </tspan><tspan class="cls-71" x="98.53" y="16.8">F</tspan><tspan class="cls-67" x="106.39" y="16.8">r</tspan><tspan x="111.45" y="16.8">ontend </tspan><tspan class="cls-65" x="0" y="33.6">c</tspan><tspan x="7.41" y="33.6">omponents.</tspan></text><text class="cls-73" transform="translate(1436.07 738.91)"><tspan class="cls-67">N</tspan><tspan class="cls-69" x="10.72" y="0">o</tspan><tspan x="18.66" y="0">t som</tspan><tspan class="cls-66" x="54.46" y="0">e</tspan><tspan x="62.08" y="0">thing </tspan><tspan class="cls-69" x="98.45" y="0">w</tspan><tspan class="cls-64" x="108.86" y="0">e</tspan><tspan x="116.38" y="0" xml:space="preserve"> h</tspan><tspan class="cls-74" x="127.78" y="0">a</tspan><tspan class="cls-64" x="135.09" y="0">ve</tspan><tspan x="149.45" y="0"> </tspan><tspan x="-11.24" y="16.8">ma</tspan><tspan class="cls-65" x="7.94" y="16.8">n</tspan><tspan class="cls-68" x="15.75" y="16.8">y</tspan><tspan x="22.32" y="16.8"> </tspan><tspan class="cls-70" x="25.85" y="16.8">o</tspan><tspan class="cls-31" x="33.81" y="16.8">f</tspan><tspan x="38.4" y="16.8"> </tspan><tspan class="cls-65" x="41.93" y="16.8">a</tspan><tspan x="49.33" y="16.8">t</tspan><tspan class="cls-31" x="54.97" y="16.8"> </tspan><tspan x="58.21" y="16.8">th</tspan><tspan class="cls-64" x="71.72" y="16.8">e</tspan><tspan x="79.24" y="16.8" xml:space="preserve"> moment but </tspan><tspan x="-12.43" y="33.6">might, and m</tspan><tspan class="cls-69" x="70.6" y="33.6">a</tspan><tspan x="77.95" y="33.6">yb</tspan><tspan class="cls-34" x="93.05" y="33.6">e</tspan><tspan x="100.56" y="33.6" xml:space="preserve"> should in </tspan><tspan x="-9.08" y="50.4">th</tspan><tspan class="cls-64" x="4.42" y="50.4">e </tspan><tspan x="15.32" y="50.4">futu</tspan><tspan class="cls-67" x="41.57" y="50.4">r</tspan><tspan class="cls-34" x="46.64" y="50.4">e</tspan><tspan x="54.15" y="50.4"> </tspan><tspan class="cls-75" x="57.68" y="50.4">(</tspan><tspan x="62.82" y="50.4">e</tspan><tspan class="cls-74" x="70.49" y="50.4">.</tspan><tspan x="74.16" y="50.4">g.</tspan><tspan class="cls-76" x="85.9" y="50.4"> </tspan><tspan x="89.15" y="50.4">top banne</tspan><tspan class="cls-77" x="153.62" y="50.4">r</tspan><tspan x="158.54" y="50.4"> </tspan><tspan x="51.2" y="67.2">partia</tspan><tspan class="cls-78" x="88.68" y="67.2">l</tspan><tspan x="92.5" y="67.2">)</tspan></text><path class="cls-79" d="M51.83,126h3.64a3,3,0,0,1,3.19,3.16,3.13,3.13,0,0,1-3.35,3.15h-1.9v3.5H51.83ZM57,129.09a1.65,1.65,0,0,0-1.77-1.74H53.41v3.53h1.86A1.65,1.65,0,0,0,57,129.14Z"/><path class="cls-79" d="M66.35,132.2a3.43,3.43,0,1,1-3.42-3.72A3.41,3.41,0,0,1,66.35,132.2Zm-1.5,0v-.09c0-1.27-.69-2.32-1.92-2.32s-1.92,1-1.92,2.32v.09c0,1.27.69,2.32,1.92,2.32S64.85,133.51,64.85,132.24Z"/><path class="cls-79" d="M70.1,133.91c0,.37.17.65.84.65a6,6,0,0,0,.9-.08L72,135.8a10.09,10.09,0,0,1-1.46.11c-1.2,0-2-.48-2-1.75V130H67.28v-1.33H68.6v-2.19c.5-.15,1-.34,1.5-.49v2.68h2V130h-2Z"/><path class="cls-79" d="M74.62,132.72a1.93,1.93,0,0,0,1.92,1.84,2.49,2.49,0,0,0,1.9-.74l.79,1.08a4,4,0,0,1-2.73,1,3.73,3.73,0,0,1,0-7.43c1.92,0,3.13,1.57,3.13,3.7v.52Zm0-1.17h3.45a1.67,1.67,0,0,0-1.63-1.78A1.82,1.82,0,0,0,74.63,131.55Z"/><path class="cls-79" d="M81.17,128.63h1.49v.67a2.45,2.45,0,0,1,1.91-.82A2.38,2.38,0,0,1,87.08,131v4.74H85.6v-4.4a1.27,1.27,0,0,0-1.35-1.46,1.56,1.56,0,0,0-1.59,1.7v4.16H81.17Z"/><path class="cls-79" d="M91.28,133.91c0,.37.17.65.84.65a6,6,0,0,0,.9-.08l.19,1.32a10,10,0,0,1-1.45.11c-1.21,0-2-.48-2-1.75V130H88.47v-1.33h1.31v-2.19c.51-.15,1-.34,1.5-.49v2.68h2V130h-2Z"/><path class="cls-79" d="M95.44,125.82a1,1,0,1,1-1,1A1,1,0,0,1,95.44,125.82Zm.74,10H94.69v-7.14h1.49Z"/><path class="cls-79" d="M100.28,135.91a2.31,2.31,0,0,1-2.53-2.23,2.08,2.08,0,0,1,2-2.06l2.35-.35V131c0-.91-.6-1.17-1.34-1.17a4.39,4.39,0,0,0-2.14.57L98,129.23a5.45,5.45,0,0,1,2.74-.75c1.34,0,2.87.37,2.87,2.34v3.32a.7.7,0,0,0,.53.68l.15.07-.67,1a1.62,1.62,0,0,1-1.26-.81A3,3,0,0,1,100.28,135.91Zm.16-3.21c-.52.09-1.15.27-1.15,1s.6,1,1.26,1,1.55-.51,1.55-1.21v-1.05Z"/><path class="cls-79" d="M105.63,126h1.48v8.11c0,.34.19.51.61.51a6.32,6.32,0,0,0,.77-.06c0,.45.11.84.15,1.29,0,0-.84.1-1.48.1a1.38,1.38,0,0,1-1.53-1.5Z"/><path class="cls-79" d="M109.66,126h1.49v8.11c0,.34.18.51.6.51a6.17,6.17,0,0,0,.77-.06c0,.45.11.84.15,1.29,0,0-.84.1-1.48.1a1.38,1.38,0,0,1-1.53-1.5Z"/><path class="cls-79" d="M112.84,128.63h1.69l1.53,5.32,1.56-5.32h1.66l-2.63,8.06a1.78,1.78,0,0,1-2,1.38,9.51,9.51,0,0,1-1.45-.13l.27-1.32a5.42,5.42,0,0,0,.94.09c.42,0,.59-.2.68-.58l.09-.32Z"/><path class="cls-79" d="M124.47,125.82a1,1,0,1,1-1,1A1,1,0,0,1,124.47,125.82Zm.75,10h-1.49v-7.14h1.49Z"/><path class="cls-79" d="M127.25,128.63h1.48v.67a2.47,2.47,0,0,1,1.92-.82,2.39,2.39,0,0,1,2.51,2.55v4.74h-1.49v-4.4a1.27,1.27,0,0,0-1.34-1.46,1.57,1.57,0,0,0-1.6,1.7v4.16h-1.48Z"/><path class="cls-79" d="M134.71,132.2a3.41,3.41,0,0,1,3.42-3.72,3.12,3.12,0,0,1,2.94,1.85l-1.32.65a1.67,1.67,0,0,0-1.62-1.15c-1.24,0-1.91,1-1.91,2.32v.09c0,1.27.67,2.32,1.91,2.32a1.67,1.67,0,0,0,1.62-1.14l1.32.64a3.12,3.12,0,0,1-2.94,1.85A3.41,3.41,0,0,1,134.71,132.2Z"/><path class="cls-79" d="M142.55,126H144v8.11c0,.34.19.51.61.51a6.32,6.32,0,0,0,.77-.06c0,.45.11.84.15,1.29,0,0-.84.1-1.48.1a1.38,1.38,0,0,1-1.53-1.5Z"/><path class="cls-79" d="M152.46,135.77H151v-.67a2.45,2.45,0,0,1-1.91.81,2.38,2.38,0,0,1-2.52-2.55v-4.73H148V133a1.27,1.27,0,0,0,1.34,1.46,1.55,1.55,0,0,0,1.6-1.69v-4.16h1.48Z"/><path class="cls-79" d="M154.08,132.2c0-2.17,1.29-3.72,3.2-3.72a2.43,2.43,0,0,1,1.9.82V126h1.49v9.81h-1.49v-.67a2.42,2.42,0,0,1-1.89.81C155.39,135.91,154.08,134.38,154.08,132.2Zm5.14-.55a1.67,1.67,0,0,0-1.7-1.82c-1.24,0-1.92,1-1.92,2.32v.09c0,1.27.66,2.32,1.92,2.32a1.67,1.67,0,0,0,1.7-1.82Z"/><path class="cls-79" d="M163.8,132.72a1.94,1.94,0,0,0,1.92,1.84,2.53,2.53,0,0,0,1.91-.74l.78,1.08a4,4,0,0,1-2.73,1,3.73,3.73,0,0,1,0-7.43c1.92,0,3.14,1.57,3.14,3.7v.52Zm0-1.17h3.44a1.67,1.67,0,0,0-1.62-1.78A1.8,1.8,0,0,0,163.82,131.55Z"/><path class="cls-79" d="M169.72,134.7l.93-1a3.25,3.25,0,0,0,2.21.93c.76,0,1.23-.32,1.23-.82s-.19-.58-.61-.73-.72-.21-1.17-.34c-.89-.23-2.15-.67-2.15-2.07s1.19-2.19,2.74-2.19a3.82,3.82,0,0,1,2.62,1l0,0-.88.95a2.87,2.87,0,0,0-1.82-.71c-.76,0-1.19.32-1.19.78s.34.63.81.78,1.12.32,1.71.53a1.87,1.87,0,0,1,1.42,1.79c0,1.54-1.35,2.27-2.82,2.27a4.47,4.47,0,0,1-2.93-1.08Z"/><path class="cls-79" d="M180.71,126h1.49v8.11c0,.34.18.51.6.51a6.17,6.17,0,0,0,.77-.06c0,.45.11.84.15,1.29,0,0-.84.1-1.48.1a1.38,1.38,0,0,1-1.53-1.5Z"/><path class="cls-79" d="M185.89,132.72a1.94,1.94,0,0,0,1.92,1.84,2.52,2.52,0,0,0,1.91-.74l.78,1.08a4,4,0,0,1-2.73,1,3.73,3.73,0,0,1,0-7.43c1.92,0,3.14,1.57,3.14,3.7v.52Zm0-1.17h3.44a1.66,1.66,0,0,0-1.62-1.78A1.8,1.8,0,0,0,185.91,131.55Z"/><path class="cls-79" d="M191.81,134.7l.93-1a3.25,3.25,0,0,0,2.21.93c.76,0,1.24-.32,1.24-.82s-.2-.58-.62-.73-.72-.21-1.16-.34c-.9-.23-2.16-.67-2.16-2.07s1.19-2.19,2.74-2.19a3.78,3.78,0,0,1,2.62,1l0,0-.89.95a2.87,2.87,0,0,0-1.82-.71c-.75,0-1.19.32-1.19.78s.34.63.81.78,1.12.32,1.71.53a1.86,1.86,0,0,1,1.42,1.79c0,1.54-1.35,2.27-2.82,2.27a4.43,4.43,0,0,1-2.92-1.08Z"/><path class="cls-79" d="M198.67,134.7l.93-1a3.25,3.25,0,0,0,2.21.93c.76,0,1.24-.32,1.24-.82s-.2-.58-.62-.73-.72-.21-1.16-.34c-.9-.23-2.16-.67-2.16-2.07s1.19-2.19,2.74-2.19a3.78,3.78,0,0,1,2.62,1l.05,0-.89.95a2.87,2.87,0,0,0-1.82-.71c-.75,0-1.19.32-1.19.78s.34.63.81.78,1.12.32,1.71.53a1.86,1.86,0,0,1,1.42,1.79c0,1.54-1.35,2.27-2.82,2.27a4.47,4.47,0,0,1-2.93-1.08Z"/><path class="cls-79" d="M52.69,149.52a1.94,1.94,0,0,0,1.92,1.84,2.52,2.52,0,0,0,1.91-.74l.78,1.08a4,4,0,0,1-2.73,1,3.73,3.73,0,0,1,0-7.43c1.92,0,3.14,1.57,3.14,3.7v.52Zm0-1.17h3.44a1.66,1.66,0,0,0-1.62-1.78A1.81,1.81,0,0,0,52.71,148.35Z"/><path class="cls-79" d="M58.62,151.5l.92-1a3.25,3.25,0,0,0,2.21.93c.76,0,1.24-.32,1.24-.82s-.2-.58-.62-.73-.71-.21-1.16-.34c-.9-.23-2.16-.67-2.16-2.07s1.19-2.19,2.75-2.19a3.82,3.82,0,0,1,2.62,1l0,0-.89,1a2.87,2.87,0,0,0-1.82-.71c-.75,0-1.19.32-1.19.78s.34.63.82.77,1.12.33,1.7.54a1.86,1.86,0,0,1,1.42,1.79c0,1.54-1.35,2.27-2.82,2.27a4.44,4.44,0,0,1-2.92-1.08Z"/><path class="cls-79" d="M68.35,150.71c0,.37.17.65.84.65a6,6,0,0,0,.89-.08l.2,1.32a10.09,10.09,0,0,1-1.46.11c-1.2,0-2-.48-2-1.75v-4.2H65.53v-1.33h1.32v-2.19c.5-.15,1-.34,1.5-.49v2.68h1.94v1.33H68.35Z"/><path class="cls-79" d="M73.82,152.71a2.32,2.32,0,0,1-2.54-2.23,2.09,2.09,0,0,1,2-2.06l2.35-.35v-.28c0-.91-.6-1.17-1.34-1.17a4.46,4.46,0,0,0-2.15.57L71.52,146a5.44,5.44,0,0,1,2.73-.75c1.35,0,2.88.37,2.88,2.34v3.32a.7.7,0,0,0,.53.68l.15.07-.67,1a1.6,1.6,0,0,1-1.26-.81A3,3,0,0,1,73.82,152.71ZM74,149.5c-.51.09-1.14.27-1.14.95s.6,1.05,1.26,1.05,1.55-.51,1.55-1.21v-1.06Z"/><path class="cls-79" d="M80.68,151.9v.67H79.2v-9.81h1.48v3.34a2.45,2.45,0,0,1,1.91-.82c1.9,0,3.19,1.55,3.19,3.72s-1.3,3.71-3.21,3.71A2.44,2.44,0,0,1,80.68,151.9Zm0-2.36a1.67,1.67,0,0,0,1.71,1.82c1.26,0,1.92-1.05,1.92-2.32V149c0-1.27-.69-2.32-1.92-2.32a1.67,1.67,0,0,0-1.71,1.82Z"/><path class="cls-79" d="M87.37,142.76h1.49v8.11c0,.34.18.51.6.51a6.17,6.17,0,0,0,.77-.06c0,.45.11.84.15,1.29,0,0-.84.1-1.48.1a1.38,1.38,0,0,1-1.53-1.5Z"/><path class="cls-79" d="M92.19,142.62a1,1,0,1,1-1,1A1,1,0,0,1,92.19,142.62Zm.74,9.95H91.45v-7.14h1.48Z"/><path class="cls-79" d="M94.33,151.5l.92-1a3.25,3.25,0,0,0,2.22.93c.75,0,1.23-.32,1.23-.82s-.2-.58-.62-.73-.71-.21-1.16-.34c-.9-.23-2.16-.67-2.16-2.07s1.19-2.19,2.75-2.19a3.82,3.82,0,0,1,2.62,1l0,0-.88,1a2.92,2.92,0,0,0-1.82-.71c-.76,0-1.19.32-1.19.78s.33.63.81.77,1.12.33,1.71.54a1.86,1.86,0,0,1,1.41,1.79c0,1.54-1.34,2.27-2.81,2.27a4.45,4.45,0,0,1-2.93-1.08Z"/><path class="cls-79" d="M103.31,152.57h-1.49v-9.81h1.49v3.34a2.45,2.45,0,0,1,1.91-.82,2.38,2.38,0,0,1,2.51,2.55v4.74h-1.48v-4.4a1.27,1.27,0,0,0-1.35-1.46,1.56,1.56,0,0,0-1.59,1.7Z"/><path class="cls-79" d="M110.81,149.52a1.93,1.93,0,0,0,1.92,1.84,2.51,2.51,0,0,0,1.9-.74l.79,1.08a4,4,0,0,1-2.73,1,3.73,3.73,0,0,1,0-7.43c1.91,0,3.13,1.57,3.13,3.7v.52Zm0-1.17h3.45a1.67,1.67,0,0,0-1.63-1.78A1.82,1.82,0,0,0,110.82,148.35Z"/><path class="cls-79" d="M117,149c0-2.17,1.29-3.72,3.19-3.72a2.47,2.47,0,0,1,1.91.82v-3.34h1.48v9.81h-1.48v-.67a2.45,2.45,0,0,1-1.89.81C118.27,152.71,117,151.18,117,149Zm5.14-.55a1.68,1.68,0,0,0-1.71-1.82c-1.23,0-1.92,1.05-1.92,2.32V149c0,1.27.66,2.32,1.92,2.32a1.68,1.68,0,0,0,1.71-1.82Z"/><path class="cls-79" d="M128.69,149a3.41,3.41,0,0,1,3.41-3.72,3.12,3.12,0,0,1,3,1.85l-1.32.65a1.67,1.67,0,0,0-1.63-1.15c-1.23,0-1.9,1.05-1.9,2.32V149c0,1.27.67,2.32,1.9,2.32a1.67,1.67,0,0,0,1.63-1.14l1.32.64a3.12,3.12,0,0,1-3,1.85A3.41,3.41,0,0,1,128.69,149Z"/><path class="cls-79" d="M142.93,149a3.43,3.43,0,1,1-3.42-3.72A3.41,3.41,0,0,1,142.93,149Zm-1.5,0V149c0-1.27-.69-2.32-1.92-2.32s-1.92,1.05-1.92,2.32V149c0,1.27.69,2.32,1.92,2.32S141.43,150.31,141.43,149Z"/><path class="cls-79" d="M150.17,152.57h-1.49v-4.39c0-1.07-.57-1.45-1.23-1.45s-1.42.52-1.42,1.72v4.12h-1.49v-7.14H146v.71a2.28,2.28,0,0,1,1.83-.86,2.12,2.12,0,0,1,1.86,1,2.55,2.55,0,0,1,4.61,1.42v4.83h-1.5v-4.39c0-1.07-.56-1.45-1.21-1.45s-1.43.52-1.43,1.72Z"/><path class="cls-79" d="M157.75,151.9v2.83h-1.48v-9.3h1.48v.67a2.47,2.47,0,0,1,1.91-.82c1.9,0,3.19,1.55,3.19,3.72s-1.3,3.71-3.21,3.71A2.45,2.45,0,0,1,157.75,151.9Zm0-2.36a1.67,1.67,0,0,0,1.71,1.82c1.26,0,1.92-1.05,1.92-2.32V149c0-1.27-.69-2.32-1.92-2.32a1.67,1.67,0,0,0-1.71,1.82Z"/><path class="cls-79" d="M170.9,149a3.43,3.43,0,1,1-3.42-3.72A3.41,3.41,0,0,1,170.9,149Zm-1.5,0V149c0-1.27-.68-2.32-1.92-2.32s-1.92,1.05-1.92,2.32V149c0,1.27.69,2.32,1.92,2.32S169.4,150.31,169.4,149Z"/><path class="cls-79" d="M172.51,145.43H174v.67a2.49,2.49,0,0,1,1.92-.82,2.38,2.38,0,0,1,2.51,2.55v4.74h-1.49v-4.4a1.27,1.27,0,0,0-1.34-1.46,1.57,1.57,0,0,0-1.6,1.7v4.16h-1.48Z"/><path class="cls-79" d="M181.5,149.52a1.93,1.93,0,0,0,1.92,1.84,2.51,2.51,0,0,0,1.9-.74l.78,1.08a3.94,3.94,0,0,1-2.73,1,3.73,3.73,0,0,1,0-7.43c1.92,0,3.14,1.57,3.14,3.7v.52Zm0-1.17H185a1.68,1.68,0,0,0-1.63-1.78A1.82,1.82,0,0,0,181.51,148.35Z"/><path class="cls-79" d="M188.05,145.43h1.48v.67a2.49,2.49,0,0,1,1.92-.82,2.38,2.38,0,0,1,2.51,2.55v4.74h-1.49v-4.4a1.27,1.27,0,0,0-1.34-1.46,1.57,1.57,0,0,0-1.6,1.7v4.16h-1.48Z"/><path class="cls-79" d="M198.16,150.71c0,.37.17.65.84.65a6,6,0,0,0,.89-.08l.2,1.32a10.09,10.09,0,0,1-1.46.11c-1.2,0-2-.48-2-1.75v-4.2h-1.32v-1.33h1.32v-2.19c.5-.15,1-.34,1.5-.49v2.68h1.94v1.33h-1.94Z"/><path class="cls-79" d="M200.93,151.5l.92-1a3.25,3.25,0,0,0,2.21.93c.76,0,1.24-.32,1.24-.82s-.2-.58-.62-.73-.71-.21-1.16-.34c-.9-.23-2.16-.67-2.16-2.07s1.19-2.19,2.75-2.19a3.82,3.82,0,0,1,2.62,1l0,0-.88,1a2.92,2.92,0,0,0-1.83-.71c-.75,0-1.19.32-1.19.78s.34.63.82.77,1.12.33,1.71.54a1.86,1.86,0,0,1,1.41,1.79c0,1.54-1.34,2.27-2.81,2.27a4.45,4.45,0,0,1-2.93-1.08Z"/><path class="cls-79" d="M53.82,167.51c0,.38.16.65.84.65a6,6,0,0,0,.89-.08l.2,1.32a10.09,10.09,0,0,1-1.46.11c-1.2,0-2-.48-2-1.75v-4.2H51v-1.33h1.32V160c.5-.15,1-.34,1.5-.49v2.68h1.94v1.33H53.82Z"/><path class="cls-79" d="M58.7,169.37H57.22v-9.81H58.7v3.34a2.47,2.47,0,0,1,1.92-.81,2.38,2.38,0,0,1,2.51,2.55v4.73H61.64V165a1.27,1.27,0,0,0-1.34-1.46,1.57,1.57,0,0,0-1.6,1.7Z"/><path class="cls-79" d="M67.16,169.51a2.32,2.32,0,0,1-2.54-2.23,2.09,2.09,0,0,1,2-2.06l2.35-.35v-.28c0-.91-.6-1.17-1.35-1.17a4.42,4.42,0,0,0-2.14.57l-.63-1.16a5.4,5.4,0,0,1,2.73-.74c1.35,0,2.87.36,2.87,2.34v3.31c0,.27.13.51.54.68l.15.07-.67,1a1.58,1.58,0,0,1-1.26-.81A2.93,2.93,0,0,1,67.16,169.51Zm.15-3.21c-.52.09-1.15.27-1.15.95s.61,1.06,1.26,1.06,1.56-.52,1.56-1.22V166Z"/><path class="cls-79" d="M74.72,167.51c0,.38.17.65.84.65a6,6,0,0,0,.89-.08l.2,1.32a10.09,10.09,0,0,1-1.46.11c-1.2,0-2-.48-2-1.75v-4.2H71.9v-1.33h1.32V160c.5-.15,1-.34,1.5-.49v2.68h2v1.33h-2Z"/><path class="cls-79" d="M81.65,162.23h1.48v.67a2.47,2.47,0,0,1,1.92-.81,2.38,2.38,0,0,1,2.51,2.55v4.73H86.07V165a1.27,1.27,0,0,0-1.34-1.46,1.57,1.57,0,0,0-1.6,1.7v4.16H81.65Z"/><path class="cls-79" d="M90.64,166.32a1.92,1.92,0,0,0,1.91,1.84,2.52,2.52,0,0,0,1.91-.74l.78,1.08a4,4,0,0,1-2.73,1,3.72,3.72,0,0,1,0-7.42c1.92,0,3.14,1.56,3.14,3.69v.52Zm0-1.17H94.1a1.68,1.68,0,0,0-1.63-1.78A1.82,1.82,0,0,0,90.65,165.15Z"/><path class="cls-79" d="M98.31,166.32a1.92,1.92,0,0,0,1.92,1.84,2.51,2.51,0,0,0,1.9-.74l.79,1.08a4,4,0,0,1-2.74,1,3.72,3.72,0,0,1,0-7.42c1.92,0,3.14,1.56,3.14,3.69v.52Zm0-1.17h3.45a1.68,1.68,0,0,0-1.63-1.78A1.82,1.82,0,0,0,98.32,165.15Z"/><path class="cls-79" d="M104.47,165.8c0-2.17,1.29-3.71,3.19-3.71a2.43,2.43,0,0,1,1.9.81v-3.34h1.49v9.81h-1.49v-.67a2.42,2.42,0,0,1-1.89.81C105.77,169.51,104.47,168,104.47,165.8Zm5.14-.55a1.68,1.68,0,0,0-1.71-1.82c-1.23,0-1.92,1-1.92,2.33v.08c0,1.27.66,2.32,1.92,2.32a1.68,1.68,0,0,0,1.71-1.82Z"/><path class="cls-79" d="M122.22,169.37h-1.48V165c0-1.07-.58-1.45-1.24-1.45s-1.41.52-1.41,1.72v4.12h-1.5v-7.14h1.47v.71a2.29,2.29,0,0,1,1.84-.85,2.12,2.12,0,0,1,1.86,1,2.56,2.56,0,0,1,4.61,1.42v4.83h-1.5V165c0-1.07-.56-1.45-1.22-1.45s-1.43.52-1.43,1.72Z"/><path class="cls-79" d="M134.75,165.8a3.43,3.43,0,1,1-3.41-3.71A3.41,3.41,0,0,1,134.75,165.8Zm-1.5,0v-.08c0-1.28-.68-2.33-1.91-2.33s-1.92,1-1.92,2.33v.08c0,1.27.68,2.32,1.92,2.32S133.25,167.11,133.25,165.84Z"/><path class="cls-79" d="M140.24,163.63H140a2,2,0,0,0-2.16,2.22v3.52h-1.48v-7.14h1.46v1a2.4,2.4,0,0,1,2.15-1.07h.27Z"/><path class="cls-79" d="M142.55,166.32a1.92,1.92,0,0,0,1.92,1.84,2.51,2.51,0,0,0,1.9-.74l.79,1.08a4,4,0,0,1-2.74,1,3.72,3.72,0,0,1,0-7.42c1.92,0,3.14,1.56,3.14,3.69v.52Zm0-1.17H146a1.68,1.68,0,0,0-1.63-1.78A1.82,1.82,0,0,0,142.56,165.15Z"/><path class="cls-79" d="M154.43,167.51c0,.38.17.65.84.65a6,6,0,0,0,.9-.08l.2,1.32a10.09,10.09,0,0,1-1.46.11c-1.2,0-2-.48-2-1.75v-4.2h-1.32v-1.33h1.32V160c.5-.15,1-.34,1.49-.49v2.68h1.95v1.33h-1.95Z"/><path class="cls-79" d="M159,166.32a1.92,1.92,0,0,0,1.91,1.84,2.52,2.52,0,0,0,1.91-.74l.78,1.08a3.94,3.94,0,0,1-2.73,1,3.72,3.72,0,0,1,0-7.42c1.92,0,3.14,1.56,3.14,3.69v.52Zm0-1.17h3.45a1.68,1.68,0,0,0-1.63-1.78A1.82,1.82,0,0,0,159,165.15Z"/><path class="cls-79" d="M164.88,168.31l.92-1a3.25,3.25,0,0,0,2.21.93c.76,0,1.24-.32,1.24-.82s-.2-.58-.62-.73-.71-.21-1.16-.34c-.9-.23-2.16-.67-2.16-2.07s1.19-2.18,2.75-2.18a3.82,3.82,0,0,1,2.62,1l0,0-.88.95a2.92,2.92,0,0,0-1.83-.71c-.75,0-1.19.32-1.19.79s.34.62.82.77,1.12.32,1.71.53a1.86,1.86,0,0,1,1.41,1.79c0,1.54-1.34,2.27-2.82,2.27a4.44,4.44,0,0,1-2.92-1.08Z"/><path class="cls-79" d="M174.61,167.51c0,.38.17.65.84.65a6,6,0,0,0,.89-.08l.2,1.32a10.09,10.09,0,0,1-1.46.11c-1.2,0-2-.48-2-1.75v-4.2h-1.32v-1.33h1.32V160c.5-.15,1-.34,1.5-.49v2.68h1.95v1.33h-1.95Z"/><path class="cls-79" d="M183,168.7v.67h-1.48v-9.81H183v3.34a2.45,2.45,0,0,1,1.91-.81c1.9,0,3.19,1.54,3.19,3.71s-1.3,3.71-3.21,3.71A2.44,2.44,0,0,1,183,168.7Zm0-2.36a1.67,1.67,0,0,0,1.71,1.82c1.26,0,1.92-1,1.92-2.32v-.08c0-1.28-.69-2.33-1.92-2.33a1.67,1.67,0,0,0-1.71,1.82Z"/><path class="cls-79" d="M190.86,166.32a1.93,1.93,0,0,0,1.92,1.84,2.49,2.49,0,0,0,1.9-.74l.79,1.08a4,4,0,0,1-2.73,1,3.72,3.72,0,0,1,0-7.42c1.92,0,3.14,1.56,3.14,3.69v.52Zm0-1.17h3.44a1.67,1.67,0,0,0-1.62-1.78A1.8,1.8,0,0,0,190.88,165.15Z"/><path class="cls-79" d="M199.46,162.23h1.41v1.33h-1.41v5.81H198v-5.81H196.8v-1.33H198v-1c0-1.28.91-1.76,2.12-1.76a6.25,6.25,0,0,1,1.31.14l-.12,1.28a9.1,9.1,0,0,0-1.05-.08c-.55,0-.77.3-.77.64Z"/><path class="cls-79" d="M208.62,165.8a3.43,3.43,0,1,1-3.42-3.71A3.41,3.41,0,0,1,208.62,165.8Zm-1.5,0v-.08c0-1.28-.69-2.33-1.92-2.33s-1.92,1-1.92,2.33v.08c0,1.27.69,2.32,1.92,2.32S207.12,167.11,207.12,165.84Z"/><path class="cls-79" d="M214.1,163.63h-.24a1.94,1.94,0,0,0-2.15,2.22v3.52h-1.49v-7.14h1.46v1a2.42,2.42,0,0,1,2.16-1.07h.26Z"/><path class="cls-79" d="M216.41,166.32a1.93,1.93,0,0,0,1.92,1.84,2.53,2.53,0,0,0,1.91-.74l.78,1.08a4,4,0,0,1-2.73,1,3.72,3.72,0,0,1,0-7.42c1.92,0,3.14,1.56,3.14,3.69v.52Zm0-1.17h3.44a1.67,1.67,0,0,0-1.62-1.78A1.8,1.8,0,0,0,216.43,165.15Z"/><path class="cls-79" d="M53.06,185.5v.67H51.57v-9.81h1.49v3.34a2.43,2.43,0,0,1,1.9-.81c1.91,0,3.2,1.54,3.2,3.71s-1.31,3.71-3.21,3.71A2.42,2.42,0,0,1,53.06,185.5Zm0-2.36A1.67,1.67,0,0,0,54.73,185c1.26,0,1.91-1.05,1.91-2.32v-.08c0-1.28-.68-2.33-1.91-2.33A1.67,1.67,0,0,0,53,182.05Z"/><path class="cls-79" d="M60.9,183.12A1.93,1.93,0,0,0,62.82,185a2.51,2.51,0,0,0,1.9-.74l.79,1.08a4,4,0,0,1-2.73,1,3.72,3.72,0,0,1,0-7.42c1.91,0,3.13,1.56,3.13,3.69v.52Zm0-1.17h3.45a1.67,1.67,0,0,0-1.63-1.78A1.82,1.82,0,0,0,60.91,182Z"/><path class="cls-79" d="M68.21,176.22a1,1,0,1,1-1,1A1,1,0,0,1,68.21,176.22Zm.74,9.95H67.46V179H69Z"/><path class="cls-79" d="M71,179h1.48v.67a2.49,2.49,0,0,1,1.92-.81,2.38,2.38,0,0,1,2.51,2.55v4.73H75.4v-4.4a1.27,1.27,0,0,0-1.34-1.46,1.57,1.57,0,0,0-1.6,1.7v4.16H71Z"/><path class="cls-79" d="M81.47,178.89a2.41,2.41,0,0,1,1.82.71V179h1.48v7.08c0,1.47-1,2.36-3,2.36a7,7,0,0,1-2.86-.59l.43-1.28a5.88,5.88,0,0,0,2.33.54c1,0,1.66-.38,1.66-1.32v-1a2.4,2.4,0,0,1-1.82.73,3.35,3.35,0,0,1,0-6.66Zm1.86,3.33c0-1.11-.49-2-1.65-2s-1.66.88-1.66,2,.49,2,1.66,2S83.33,183.37,83.33,182.22Z"/><path class="cls-79" d="M89.91,182.6a3.4,3.4,0,0,1,3.41-3.71,3.12,3.12,0,0,1,3,1.84l-1.32.65a1.67,1.67,0,0,0-1.63-1.15c-1.23,0-1.9,1.05-1.9,2.33v.08c0,1.27.67,2.32,1.9,2.32A1.67,1.67,0,0,0,95,183.82l1.32.64a3.13,3.13,0,0,1-3,1.85A3.41,3.41,0,0,1,89.91,182.6Z"/><path class="cls-79" d="M104.15,182.6a3.43,3.43,0,1,1-3.42-3.71A3.41,3.41,0,0,1,104.15,182.6Zm-1.5,0v-.08c0-1.28-.69-2.33-1.92-2.33s-1.92,1.05-1.92,2.33v.08c0,1.27.69,2.32,1.92,2.32S102.65,183.91,102.65,182.64Z"/><path class="cls-79" d="M105.76,179h1.48v.67a2.47,2.47,0,0,1,1.92-.81,2.38,2.38,0,0,1,2.51,2.55v4.73h-1.49v-4.4a1.27,1.27,0,0,0-1.34-1.46,1.57,1.57,0,0,0-1.6,1.7v4.16h-1.48Z"/><path class="cls-79" d="M113,185.11l.93-1a3.25,3.25,0,0,0,2.21.93c.76,0,1.23-.32,1.23-.82s-.19-.58-.61-.73-.72-.21-1.17-.34c-.89-.23-2.15-.67-2.15-2.07s1.19-2.18,2.74-2.18a3.78,3.78,0,0,1,2.62,1l0,0-.88,1a2.87,2.87,0,0,0-1.82-.71c-.76,0-1.19.32-1.19.78s.34.63.81.78,1.12.32,1.71.53a1.86,1.86,0,0,1,1.42,1.79c0,1.54-1.35,2.27-2.82,2.27a4.47,4.47,0,0,1-2.93-1.08Z"/><path class="cls-79" d="M121.24,176.22a1,1,0,1,1-1,1A1,1,0,0,1,121.24,176.22Zm.74,9.95H120.5V179H122Z"/><path class="cls-79" d="M123.62,182.6c0-2.17,1.29-3.71,3.19-3.71a2.45,2.45,0,0,1,1.91.81v-3.34h1.48v9.81h-1.48v-.67a2.44,2.44,0,0,1-1.89.81C124.92,186.31,123.62,184.78,123.62,182.6Zm5.14-.55a1.67,1.67,0,0,0-1.71-1.82c-1.23,0-1.92,1.05-1.92,2.33v.08c0,1.27.66,2.32,1.92,2.32a1.67,1.67,0,0,0,1.71-1.82Z"/><path class="cls-79" d="M133.34,183.12a1.93,1.93,0,0,0,1.92,1.84,2.51,2.51,0,0,0,1.9-.74l.78,1.08a3.94,3.94,0,0,1-2.73,1,3.72,3.72,0,0,1,0-7.42c1.92,0,3.14,1.56,3.14,3.69v.52Zm0-1.17h3.45a1.68,1.68,0,0,0-1.63-1.78A1.82,1.82,0,0,0,133.35,182Z"/><path class="cls-79" d="M143.77,180.43h-.24a2,2,0,0,0-2.16,2.22v3.52h-1.48V179h1.46V180a2.4,2.4,0,0,1,2.15-1.07h.27Z"/><path class="cls-79" d="M146.08,183.12A1.93,1.93,0,0,0,148,185a2.52,2.52,0,0,0,1.91-.74l.78,1.08a3.94,3.94,0,0,1-2.73,1,3.72,3.72,0,0,1,0-7.42c1.92,0,3.14,1.56,3.14,3.69v.52Zm0-1.17h3.45a1.68,1.68,0,0,0-1.63-1.78A1.82,1.82,0,0,0,146.09,182Z"/><path class="cls-79" d="M152.23,182.6c0-2.17,1.29-3.71,3.2-3.71a2.43,2.43,0,0,1,1.9.81v-3.34h1.49v9.81h-1.49v-.67a2.42,2.42,0,0,1-1.89.81C153.54,186.31,152.23,184.78,152.23,182.6Zm5.15-.55a1.68,1.68,0,0,0-1.71-1.82c-1.24,0-1.92,1.05-1.92,2.33v.08c0,1.27.66,2.32,1.92,2.32a1.68,1.68,0,0,0,1.71-1.82Z"/><path class="cls-79" d="M165.84,185.5v2.83h-1.48V179h1.48v.67a2.47,2.47,0,0,1,1.91-.81c1.9,0,3.19,1.54,3.19,3.71s-1.3,3.71-3.2,3.71A2.46,2.46,0,0,1,165.84,185.5Zm0-2.36a1.68,1.68,0,0,0,1.71,1.82c1.26,0,1.92-1.05,1.92-2.32v-.08c0-1.28-.69-2.33-1.92-2.33a1.68,1.68,0,0,0-1.71,1.82Z"/><path class="cls-79" d="M176.44,180.43h-.23a2,2,0,0,0-2.16,2.22v3.52h-1.49V179H174V180a2.42,2.42,0,0,1,2.16-1.07h.26Z"/><path class="cls-79" d="M184.06,182.6a3.43,3.43,0,1,1-3.42-3.71A3.41,3.41,0,0,1,184.06,182.6Zm-1.5,0v-.08c0-1.28-.68-2.33-1.92-2.33s-1.92,1.05-1.92,2.33v.08c0,1.27.69,2.32,1.92,2.32S182.56,183.91,182.56,182.64Z"/><path class="cls-79" d="M185.28,182.6c0-2.17,1.28-3.71,3.19-3.71a2.43,2.43,0,0,1,1.9.81v-3.34h1.49v9.81h-1.49v-.67a2.42,2.42,0,0,1-1.89.81C186.58,186.31,185.28,184.78,185.28,182.6Zm5.14-.55a1.68,1.68,0,0,0-1.71-1.82c-1.24,0-1.92,1.05-1.92,2.33v.08c0,1.27.66,2.32,1.92,2.32a1.68,1.68,0,0,0,1.71-1.82Z"/><path class="cls-79" d="M199.73,186.17h-1.49v-.67a2.44,2.44,0,0,1-1.9.81,2.37,2.37,0,0,1-2.52-2.55V179h1.48v4.39a1.27,1.27,0,0,0,1.35,1.46,1.54,1.54,0,0,0,1.59-1.69V179h1.49Z"/><path class="cls-79" d="M201.33,182.6a3.41,3.41,0,0,1,3.42-3.71,3.11,3.11,0,0,1,2.94,1.84l-1.31.65a1.67,1.67,0,0,0-1.63-1.15c-1.23,0-1.9,1.05-1.9,2.33v.08c0,1.27.67,2.32,1.9,2.32a1.67,1.67,0,0,0,1.63-1.14l1.31.64a3.12,3.12,0,0,1-2.94,1.85A3.41,3.41,0,0,1,201.33,182.6Z"/><path class="cls-79" d="M209.15,181.42h3.23v1.39h-3.23Z"/><path class="cls-79" d="M53.82,201.11c0,.37.16.65.84.65a6,6,0,0,0,.89-.08l.2,1.32a10.09,10.09,0,0,1-1.46.11c-1.2,0-2-.48-2-1.75v-4.2H51v-1.33h1.32v-2.19c.5-.15,1-.34,1.5-.49v2.68h1.94v1.33H53.82Z"/><path class="cls-79" d="M58,193a1,1,0,1,1-1,1A1,1,0,0,1,58,193Zm.75,9.95H57.23v-7.14h1.49Z"/><path class="cls-79" d="M67.17,199.4a3.43,3.43,0,1,1-3.41-3.71A3.41,3.41,0,0,1,67.17,199.4Zm-1.49,0v-.08c0-1.28-.69-2.33-1.92-2.33s-1.92,1.05-1.92,2.33v.08c0,1.27.68,2.32,1.92,2.32S65.68,200.71,65.68,199.44Z"/><path class="cls-79" d="M68.78,195.83h1.49v.67a2.45,2.45,0,0,1,1.91-.81,2.38,2.38,0,0,1,2.51,2.54V203H73.21v-4.4a1.27,1.27,0,0,0-1.35-1.46,1.56,1.56,0,0,0-1.59,1.7V203H68.78Z"/><path class="cls-79" d="M84.06,197.23h-.24a2,2,0,0,0-2.16,2.22V203H80.18v-7.14h1.45v.95a2.44,2.44,0,0,1,2.16-1.07h.27Z"/><path class="cls-79" d="M86.37,199.92a1.93,1.93,0,0,0,1.91,1.84,2.52,2.52,0,0,0,1.91-.74L91,202.1a3.94,3.94,0,0,1-2.73,1,3.72,3.72,0,0,1,0-7.42c1.92,0,3.14,1.56,3.14,3.69v.52Zm0-1.17h3.45A1.68,1.68,0,0,0,88.2,197,1.82,1.82,0,0,0,86.38,198.75Z"/><path class="cls-79" d="M95,203.11a2.32,2.32,0,0,1-2.54-2.23,2.09,2.09,0,0,1,2-2.06l2.35-.35v-.28c0-.91-.6-1.17-1.34-1.17a4.46,4.46,0,0,0-2.15.57l-.63-1.16a5.43,5.43,0,0,1,2.73-.74c1.35,0,2.88.36,2.88,2.33v3.32a.7.7,0,0,0,.53.68l.15.07-.67,1a1.6,1.6,0,0,1-1.26-.81A2.93,2.93,0,0,1,95,203.11Zm.15-3.21c-.51.09-1.14.27-1.14.95s.6,1.05,1.26,1.05,1.55-.51,1.55-1.21v-1.05Z"/><path class="cls-79" d="M100,199.4c0-2.17,1.29-3.71,3.2-3.71a2.43,2.43,0,0,1,1.9.81v-3.34h1.49V203h-1.49v-.67a2.42,2.42,0,0,1-1.89.81C101.28,203.11,100,201.58,100,199.4Zm5.14-.55A1.67,1.67,0,0,0,103.4,197c-1.23,0-1.91,1.05-1.91,2.33v.08c0,1.27.65,2.32,1.91,2.32a1.67,1.67,0,0,0,1.71-1.82Z"/><path class="cls-79" d="M107.78,195.83h1.7l1.53,5.32,1.55-5.32h1.67l-2.63,8.06a1.8,1.8,0,0,1-2,1.38,9.27,9.27,0,0,1-1.44-.13l.27-1.32a5.23,5.23,0,0,0,.93.09c.42,0,.59-.2.69-.58l.08-.32Z"/><path class="cls-79" d="M116,201a1.07,1.07,0,0,1,0,2.13,1.07,1.07,0,1,1,0-2.13Z"/><text class="cls-62" transform="translate(50.57 921.41)"><tspan class="cls-80">W</tspan><tspan x="12.32" y="0">el</tspan><tspan class="cls-81" x="24.02" y="0">l</tspan><tspan x="27.68" y="0" xml:space="preserve"> established and </tspan><tspan x="0" y="16.8">tested </tspan><tspan class="cls-65" x="45.22" y="16.8">c</tspan><tspan x="52.63" y="16.8">omponents.</tspan></text><rect class="cls-54" x="260.83" y="90.57" width="1348.06" height="83.05"/><text class="cls-55" transform="translate(274.29 158.67)"><tspan class="cls-56">D</tspan><tspan x="11.34" y="0">igita</tspan><tspan class="cls-57" x="43.44" y="0">l</tspan><tspan class="cls-58" x="47.62" y="0" xml:space="preserve"> land pages, p</tspan><tspan class="cls-59" x="148.73" y="0">r</tspan><tspan x="154.53" y="0">ojects and p</tspan><tspan class="cls-59" x="243.66" y="0">r</tspan><tspan class="cls-60" x="249.45" y="0">o</tspan><tspan class="cls-58" x="258.53" y="0">t</tspan><tspan class="cls-60" x="264.97" y="0">o</tspan><tspan x="274.04" y="0">types - with </tspan><tspan class="cls-59" x="363.81" y="0">r</tspan><tspan x="369.6" y="0">epo specific</tspan><tspan class="cls-61" x="457.63" y="0"> </tspan><tspan x="461.48" y="0">f</tspan><tspan class="cls-59" x="467.05" y="0">r</tspan><tspan x="472.84" y="0">ontend</tspan></text><text class="cls-12" transform="translate(839.76 808.51)">g<tspan class="cls-82" x="10.42" y="0">o</tspan><tspan x="20.75" y="0">vu</tspan><tspan class="cls-83" x="40.32" y="0">k</tspan><tspan x="50.04" y="0">-jinja-</tspan><tspan class="cls-48" x="97.81" y="0">c</tspan><tspan x="107.55" y="0">omponents</tspan></text><text class="cls-55" transform="translate(274.07 447.1)">digita<tspan class="cls-84" x="41.47" y="0">l</tspan><tspan x="45.78" y="0">-land</tspan><tspan class="cls-85" x="83.14" y="0">.</tspan><tspan x="87.33" y="0">github.io, </tspan><tspan class="cls-59" x="160.43" y="0">r</tspan><tspan x="166.22" y="0">eplacing HUGO</tspan></text><text class="cls-55" transform="translate(274.07 658.75)">Custom<tspan class="cls-86" x="56.94" y="0"> </tspan><tspan class="cls-87" x="60.8" y="0">f</tspan><tspan class="cls-85" x="66.37" y="0">r</tspan><tspan x="72.16" y="0">ontend css, js and </tspan><tspan class="cls-88" x="207.61" y="0">c</tspan><tspan class="cls-89" x="216.08" y="0">omponents</tspan></text><text class="cls-55" transform="translate(274.07 944.17)">G<tspan class="cls-90" x="11.47" y="0">O</tspan><tspan class="cls-91" x="23.01" y="0">V</tspan><tspan class="cls-92" x="32.16" y="0">.</tspan><tspan x="36.32" y="0">U</tspan><tspan class="cls-93" x="47.66" y="0">K</tspan><tspan x="57.97" y="0" xml:space="preserve"> Design s</tspan><tspan class="cls-94" x="124.02" y="0">y</tspan><tspan x="131.77" y="0">stem ass</tspan><tspan class="cls-95" x="196.46" y="0">e</tspan><tspan class="cls-89" x="205.17" y="0">ts</tspan></text><line class="cls-5" x1="886.72" y1="863.33" x2="886.72" y2="830.06"/><polygon class="cls-6" points="891.71 831.51 886.72 822.88 881.74 831.51 891.71 831.51"/><line class="cls-5" x1="1354.86" y1="863.33" x2="1354.86" y2="684.37"/><polygon class="cls-6" points="1359.85 685.83 1354.87 677.19 1349.88 685.83 1359.85 685.83"/><rect class="cls-96" x="949.4" y="590.82" width="381.18" height="71.14"/><rect class="cls-11" x="612.25" y="883.62" width="89" height="59"/><text class="cls-12" transform="translate(623.17 909.23)">G<tspan class="cls-13" x="13.23" y="0">O</tspan><tspan class="cls-14" x="26.42" y="0">V</tspan><tspan class="cls-15" x="36.99" y="0">.</tspan><tspan x="41.96" y="0">U</tspan><tspan class="cls-16" x="54.74" y="0">K</tspan><tspan class="cls-17" x="15.58" y="21.6">C</tspan><tspan x="27.98" y="21.6">SS</tspan></text><rect class="cls-11" x="707.25" y="883.62" width="89" height="59"/><text class="cls-12" transform="translate(718.17 909.23)">G<tspan class="cls-13" x="13.23" y="0">O</tspan><tspan class="cls-14" x="26.42" y="0">V</tspan><tspan class="cls-15" x="36.99" y="0">.</tspan><tspan x="41.96" y="0">U</tspan><tspan class="cls-16" x="54.74" y="0">K</tspan><tspan x="23.54" y="21.6">JS</tspan></text><rect class="cls-11" x="519.12" y="883.62" width="89" height="59"/><text class="cls-25" transform="translate(526.61 918.83)">Base.htm<tspan class="cls-27" x="70.93" y="0">l</tspan></text><rect class="cls-96" x="513.92" y="878.08" width="290.23" height="70.09"/><line class="cls-97" x1="252.25" y1="843.1" x2="1608.89" y2="843.1"/><rect class="cls-54" x="1654.12" y="919.72" width="87.2" height="28.85"/><rect class="cls-9" x="1654.12" y="961.07" width="87.2" height="28.85"/><rect class="cls-98" x="1631.5" y="860.53" width="221.12" height="149.16"/><line class="cls-99" x1="252.25" y1="132.1" x2="208.6" y2="132.1"/><polyline class="cls-99" points="252.25 236.09 226.63 236.09 226.63 397.62 252.25 397.62"/><line class="cls-99" x1="252.25" y1="625.31" x2="204.3" y2="625.31"/><line class="cls-99" x1="1546.22" y1="714.74" x2="1546.22" y2="661.96"/><polyline class="cls-99" points="1411.66 757.4 1279.08 757.4 1279.08 661.96"/></svg>